<?xml version="1.0" encoding="UTF-8" standalone="no"?>
<svg width="23px" height="13px" viewBox="0 0 23 13" version="1.1" xmlns="http://www.w3.org/2000/svg" xmlns:xlink="http://www.w3.org/1999/xlink" xmlns:sketch="http://www.bohemiancoding.com/sketch/ns">
    <!-- Generator: Sketch 3.2.2 (9983) - http://www.bohemiancoding.com/sketch -->
    <title>&lt;/&gt;</title>
    <desc>Created with Sketch.</desc>
    <defs></defs>
    <g id="Page-1" stroke="none" stroke-width="1" fill="none" fill-rule="evenodd" sketch:type="MSPage">
        <g id="Explore" sketch:type="MSArtboardGroup" transform="translate(-422.000000, -1286.000000)">
            <rect id="Rectangle-452" sketch:type="MSShapeGroup" x="40" y="1270" width="624" height="351"></rect>
            <g id="Social-buttons-2" sketch:type="MSLayerGroup" transform="translate(415.000000, 1177.000000)" stroke="#0079FF" fill="#FFFFFF">
                <path d="M249,41.4957848 L249,3.0061411 C249,1.89824172 248.107575,1 247.006713,1 L221.993287,1 C220.899713,1 220,1.89817996 220,3.0061411 L220,36 L2.0043114,36 C0.90162456,36 0,36.8944055 0,37.9977106 L0,162.002289 C0,163.114275 0.897360779,164 2.0043114,164 L246.995689,164 C248.098375,164 249,163.105594 249,162.002289 L249,41.4957848 Z" id="Rectangle-274" sketch:type="MSShapeGroup"></path>
            </g>
            <path d="M423.588,1292.364 L430.428,1295.196 L430.428,1293.336 L426.336,1291.752 L430.428,1290.168 L430.428,1288.344 L423.588,1291.164 L423.588,1292.364 Z M432.696,1297.2 L436.308,1287.3 L434.46,1287.3 L430.86,1297.2 L432.696,1297.2 Z M443.58,1291.212 L436.74,1288.368 L436.74,1290.24 L440.832,1291.812 L436.74,1293.396 L436.74,1295.232 L443.58,1292.412 L443.58,1291.212 Z" id="&lt;/>" fill="#0079FF" sketch:type="MSShapeGroup"></path>
        </g>
    </g>
</svg>