<?xml version="1.0" encoding="UTF-8" standalone="no"?>
<svg width="19px" height="20px" viewBox="0 0 19 20" version="1.1" xmlns="http://www.w3.org/2000/svg" xmlns:xlink="http://www.w3.org/1999/xlink" xmlns:sketch="http://www.bohemiancoding.com/sketch/ns">
    <!-- Generator: Sketch 3.2.2 (9983) - http://www.bohemiancoding.com/sketch -->
    <title>Rectangle 302</title>
    <desc>Created with Sketch.</desc>
    <defs></defs>
    <g id="Page-1" stroke="none" stroke-width="1" fill="none" fill-rule="evenodd" sketch:type="MSPage">
        <g id="Explore" sketch:type="MSArtboardGroup" transform="translate(-424.000000, -1223.000000)">
            <g id="Social-buttons-2" sketch:type="MSLayerGroup" transform="translate(415.000000, 1177.000000)" stroke="#0079FF" fill="#FFFFFF">
                <path d="M249,41.4957848 L249,3.0061411 C249,1.89824172 248.107575,1 247.006713,1 L221.993287,1 C220.899713,1 220,1.89817996 220,3.0061411 L220,36 L2.0043114,36 C0.90162456,36 0,36.8944055 0,37.9977106 L0,162.002289 C0,163.114275 0.897360779,164 2.0043114,164 L246.995689,164 C248.098375,164 249,163.105594 249,162.002289 L249,41.4957848 Z" id="Rectangle-274" sketch:type="MSShapeGroup"></path>
            </g>
            <path d="M431.242723,1226.95832 C431.242723,1225.68455 432.275368,1224.65212 433.549913,1224.65212 C434.823393,1224.65212 435.857103,1225.68596 435.857103,1226.95832 L435.857103,1231.26705 C435.857103,1232.54082 434.824458,1233.57325 433.549913,1233.57325 L433.549913,1235.72663 C436.013636,1235.72663 438.010481,1233.7302 438.010481,1231.26705 L438.010481,1226.95832 C438.010481,1224.49675 436.012734,1222.49874 433.549913,1222.49874 C431.08619,1222.49874 429.089345,1224.49517 429.089345,1226.95832 L429.089345,1230.03654 L431.242723,1230.03654 L431.242723,1226.95832 Z M435.857103,1238.95768 C435.857103,1240.23145 434.824458,1241.26388 433.549913,1241.26388 C432.276433,1241.26388 431.242723,1240.23004 431.242723,1238.95768 L431.242723,1234.64895 C431.242723,1233.37518 432.275368,1232.34275 433.549913,1232.34275 L433.549913,1230.18937 C431.08619,1230.18937 429.089345,1232.1858 429.089345,1234.64895 L429.089345,1238.95768 C429.089345,1241.41925 431.087092,1243.41726 433.549913,1243.41726 C436.013636,1243.41726 438.010481,1241.42083 438.010481,1238.95768 L438.010481,1235.87946 L435.857103,1235.87946 L435.857103,1238.95768 Z" id="Rectangle-302" fill="#0079FF" sketch:type="MSShapeGroup" transform="translate(433.549913, 1232.958000) rotate(45.000000) translate(-433.549913, -1232.958000) "></path>
        </g>
    </g>
</svg>