<?xml version="1.0" encoding="UTF-8" standalone="no"?>
<svg width="24px" height="18px" viewBox="0 0 24 18" version="1.1" xmlns="http://www.w3.org/2000/svg" xmlns:xlink="http://www.w3.org/1999/xlink" xmlns:sketch="http://www.bohemiancoding.com/sketch/ns">
    <!-- Generator: Sketch 3.2.2 (9983) - http://www.bohemiancoding.com/sketch -->
    <title>Shape</title>
    <desc>Created with Sketch.</desc>
    <defs></defs>
    <g id="Page-1" stroke="none" stroke-width="1" fill="none" fill-rule="evenodd" sketch:type="MSPage">
        <g id="views_icon" sketch:type="MSLayerGroup">
            <g id="Page-1" sketch:type="MSShapeGroup">
                <g id="views_icon">
                    <path d="M1,9 C1,9 3.75,1 12,1 C20.25,1 23,9 23,9 C23,9 20.25,17 12,17 C3.75,17 1,9 1,9 L1,9 L1,9 Z" id="Shape" stroke="#D8D8D8" stroke-width="2"></path>
                    <path d="M12.3230769,12.5 C14.1583616,12.5 15.6461538,10.8210678 15.6461538,8.75 L12.3230769,8.75 L12.3230769,5 C10.4877922,5 9,6.67893219 9,8.75 C9,10.8210678 10.4877922,12.5 12.3230769,12.5 L12.3230769,12.5 L12.3230769,12.5 Z" id="Oval-112" fill="#D8D8D8"></path>
                </g>
            </g>
        </g>
    </g>
</svg>