<?xml version="1.0" standalone="no"?>
<!DOCTYPE svg PUBLIC "-//W3C//DTD SVG 20010904//EN"
 "http://www.w3.org/TR/2001/REC-SVG-20010904/DTD/svg10.dtd">
<svg version="1.0" xmlns="http://www.w3.org/2000/svg"
 width="500.000000pt" height="500.000000pt" viewBox="0 0 500.000000 500.000000"
 preserveAspectRatio="xMidYMid meet">
<metadata>
Created by potrace 1.11, written by Peter Selinger 2001-2013
</metadata>
<g transform="translate(0.000000,500.000000) scale(0.100000,-0.100000)"
fill="#000000" stroke="none">
<path d="M3490 3643 c-56 -8 -179 -36 -235 -56 -263 -89 -494 -282 -629 -525
-43 -78 -103 -223 -111 -272 -3 -19 -11 -51 -16 -70 -18 -59 -20 -325 -3 -417
38 -215 138 -418 281 -575 111 -120 196 -184 348 -257 189 -92 316 -120 530
-116 250 4 469 79 665 226 268 202 428 496 456 837 l6 82 -576 0 -576 0 0 575
0 576 -57 -3 c-32 -1 -69 -4 -83 -5z"/>
<path d="M243 3538 c13 -24 58 -101 99 -173 41 -71 86 -150 100 -175 14 -25
121 -211 238 -415 117 -203 220 -383 230 -400 41 -72 224 -393 242 -425 11
-19 53 -91 93 -160 75 -129 108 -187 158 -277 15 -29 32 -53 35 -53 4 0 12 9
17 21 6 11 129 227 275 481 146 253 279 486 296 517 18 31 82 144 144 251 62
107 122 213 134 235 13 22 48 83 78 135 30 52 66 115 80 140 14 25 60 105 102
178 42 73 79 139 83 147 4 13 -151 15 -1211 15 l-1217 0 24 -42z"/>
</g>
</svg>
