<?xml version="1.0" encoding="UTF-8" standalone="no"?>
<svg width="135px" height="40px" viewBox="0 0 135 40" version="1.1" xmlns="http://www.w3.org/2000/svg" xmlns:xlink="http://www.w3.org/1999/xlink" xmlns:sketch="http://www.bohemiancoding.com/sketch/ns">
    <!-- Generator: Sketch 3.2.2 (9983) - http://www.bohemiancoding.com/sketch -->
    <title>google_play_btn</title>
    <desc>Created with Sketch.</desc>
    <defs></defs>
    <g id="Page-1" stroke="none" stroke-width="1" fill="none" fill-rule="evenodd" sketch:type="MSPage">
        <g id="google_play_btn" sketch:type="MSLayerGroup">
            <g id="Page-1" sketch:type="MSShapeGroup">
                <g id="google_play_btn">
                    <rect id="Rectangle-141" stroke="#0079FF" x="0.5" y="0.5" width="134" height="39" rx="5"></rect>
                    <path d="M88.5899302,28.4624 L87.7266279,29.2746667 C87.5271163,29.384 87.3286744,29.5109333 87.1307674,29.6010667 C86.5311628,29.8725333 85.9213953,29.9408 85.3795581,29.9408 C84.8029535,29.9408 83.899,29.9034667 82.9768605,29.2384 C81.695814,28.3386667 81.1357907,26.792 81.1357907,25.4442667 C81.1357907,22.6538667 83.4138605,21.2853333 85.2720465,21.2853333 C85.9213953,21.2853333 86.5889302,21.4474667 87.1307674,21.7898667 C88.0325814,22.384 88.2657907,23.1568 88.3952326,23.5706667 L84.152,25.28 L82.7623721,25.3882667 C83.2122093,27.6757333 84.7644419,29.0064 86.479814,29.0064 C87.3366977,29.0064 87.9726744,28.7274667 88.5562326,28.44 C88.5562326,28.44 88.6733721,28.3792 88.5899302,28.4624 L88.5899302,28.4624 L88.5899302,28.4624 Z M86.0299767,23.9114667 C86.3744419,23.7866667 86.5536279,23.6789333 86.5536279,23.4282667 C86.5536279,22.7093333 85.7379302,21.8789333 84.7644419,21.8789333 C84.0434186,21.8789333 82.6896279,22.4389333 82.6896279,24.3834667 C82.6896279,24.6869333 82.726,25.0101333 82.744186,25.3333333 L86.0299767,23.9114667 L86.0299767,23.9114667 Z" id="Fill-3" fill="#0079FF"></path>
                    <path d="M79.717814,28.3232 C79.717814,29.0224 79.8429767,29.1312 80.4361628,29.1861333 C80.7453256,29.2224 81.0534186,29.2384 81.3583023,29.2746667 L80.6907674,29.6709333 L77.509814,29.6709333 C77.9270233,29.1312 77.9986977,29.0778667 77.9986977,28.7178667 L77.9986977,28.3162667 L77.9917442,17.6154667 L76.5871395,17.6154667 L77.9393256,16.9658667 L80.5206744,16.9658667 C79.961186,17.2890667 79.7937674,17.4858667 79.722093,18.1157333 L79.717814,28.3232" id="Fill-4" fill="#0079FF"></path>
                    <path d="M74.7845814,22.1685333 C75.1991163,22.5082667 76.0640233,23.2293333 76.0640233,24.5968 C76.0640233,25.9296 75.3103721,26.5578667 74.5503023,27.1525333 C74.317093,27.3866667 74.0443023,27.6405333 74.0443023,28.0336 C74.0443023,28.4314667 74.317093,28.6474667 74.5133953,28.8085333 L75.1654186,29.3104 C75.9581163,29.9776 76.6807442,30.5898667 76.6807442,31.832 C76.6807442,33.5248 75.0375814,35.232 71.9325814,35.232 C69.317,35.232 68.0525349,33.9898667 68.0525349,32.6581333 C68.0525349,32.0101333 68.3761395,31.0922667 69.4437674,30.4634667 C70.5627442,29.7813333 72.0786047,29.6901333 72.8905581,29.6368 C72.6370233,29.3104 72.3476512,28.9685333 72.3476512,28.4106667 C72.3476512,28.1056 72.4396512,27.9237333 72.5284419,27.7093333 C72.3310698,27.728 72.132093,27.7472 71.9513023,27.7472 C70.0369535,27.7472 68.9548837,26.3232 68.9548837,24.92 C68.9548837,24.0922667 69.3335814,23.1738667 70.1113023,22.5082667 C71.1404186,21.6634667 72.3674419,21.5178667 73.3425349,21.5178667 L77.0621163,21.5178667 L75.9056977,22.1685333 L74.7845814,22.1685333 L74.7845814,22.1685333 Z M73.5056744,30.1584 C73.3575116,30.1392 73.2687209,30.1392 73.0900698,30.1392 C72.9263953,30.1392 71.9513023,30.1744 71.1960465,30.4272 C70.7964884,30.5728 69.6416744,31.0032 69.6416744,32.2816 C69.6416744,33.5573333 70.8884884,34.4773333 72.8172791,34.4773333 C74.5503023,34.4773333 75.4703023,33.6490667 75.4703023,32.5338667 C75.4703023,31.616 74.8749767,31.1317333 73.5056744,30.1584 L73.5056744,30.1584 L73.5056744,30.1584 Z M74.0245116,26.7386667 C74.4417209,26.3232 74.478093,25.7493333 74.478093,25.4234667 C74.478093,24.1290667 73.7041163,22.1130667 72.2037674,22.1130667 C71.7357442,22.1130667 71.2286744,22.3472 70.940907,22.7093333 C70.6354884,23.0842667 70.5440233,23.5706667 70.5440233,24.0384 C70.5440233,25.2437333 71.249,27.2426667 72.7996279,27.2426667 C73.2521395,27.2426667 73.7388837,27.0234667 74.0245116,26.7386667 L74.0245116,26.7386667 L74.0245116,26.7386667 Z" id="Fill-5" fill="#0079FF"></path>
                    <path d="M63.5937442,29.9034667 C60.7246279,29.9034667 59.1895116,27.6757333 59.1895116,25.6586667 C59.1895116,23.3018667 61.1193721,21.2853333 63.8643953,21.2853333 C66.5179535,21.2853333 68.1798372,23.3568 68.1798372,25.5317333 C68.1798372,27.656 66.5372093,29.9034667 63.5937442,29.9034667 L63.5937442,29.9034667 L63.5937442,29.9034667 Z M65.8509535,28.4474667 C66.2874186,27.8714667 66.3933256,27.1525333 66.3933256,26.4517333 C66.3933256,24.8666667 65.6359302,21.8437333 63.3974419,21.8437333 C62.8021163,21.8437333 62.2025116,22.0757333 61.7703256,22.4544 C61.0653488,23.0842667 60.9396512,23.8757333 60.9396512,24.6522667 C60.9396512,26.4304 61.8211395,29.3632 64.008814,29.3632 C64.7148605,29.3632 65.4353488,29.0224 65.8509535,28.4474667 L65.8509535,28.4474667 L65.8509535,28.4474667 Z" id="Fill-6" fill="#0079FF"></path>
                    <path d="M53.9877674,29.9034667 C51.1181163,29.9034667 49.5856744,27.6757333 49.5856744,25.6586667 C49.5856744,23.3018667 51.5160698,21.2853333 54.2600233,21.2853333 C56.9119767,21.2853333 58.5722558,23.3568 58.5722558,25.5317333 C58.5722558,27.656 56.9317674,29.9034667 53.9877674,29.9034667 L53.9877674,29.9034667 L53.9877674,29.9034667 Z M56.2455116,28.4474667 C56.6787674,27.8714667 56.786814,27.1525333 56.786814,26.4517333 C56.786814,24.8666667 56.0272791,21.8437333 53.7909302,21.8437333 C53.1934651,21.8437333 52.6002791,22.0757333 52.1670233,22.4544 C51.4609767,23.0842667 51.335814,23.8757333 51.335814,24.6522667 C51.335814,26.4304 52.2210465,29.3632 54.4049767,29.3632 C55.1094186,29.3632 55.8288372,29.0224 56.2455116,28.4474667 L56.2455116,28.4474667 L56.2455116,28.4474667 Z" id="Fill-7" fill="#0079FF"></path>
                    <path d="M48.4383488,29.2789333 L46.0185349,29.8314667 C45.038093,29.9856 44.1576744,30.1210667 43.2253721,30.1210667 C38.5579767,30.1210667 36.7794884,26.6954667 36.7794884,24.0144 C36.7794884,20.7402667 39.2993256,17.7045333 43.6147674,17.7045333 C44.527814,17.7045333 45.406093,17.8384 46.2062791,18.056 C47.4744884,18.4117333 48.0676744,18.8490667 48.4383488,19.1056 L47.0326744,20.4368 L46.4400233,20.5690667 L46.8625814,19.8976 C46.2902558,19.3402667 45.2381395,18.3114667 43.2414186,18.3114667 C40.571814,18.3114667 38.5579767,20.3349333 38.5579767,23.2890667 C38.5579767,26.4618667 40.8574419,29.4464 44.5454651,29.4464 C45.6291395,29.4464 46.1870233,29.2293333 46.6935581,29.0266667 L46.6935581,26.3066667 L44.1384186,26.4437333 L45.4927442,25.7184 L49.0786047,25.7184 L48.64,26.1392 C48.5217907,26.2394667 48.5057442,26.2736 48.4725814,26.408 C48.4549302,26.5616 48.4383488,27.0501333 48.4383488,27.2218667 L48.4383488,29.2789333" id="Fill-8" fill="#0079FF"></path>
                    <path d="M93.7927442,28.5392 L93.7927442,33.1232 L92.8796977,33.1232 L92.8796977,21.4586667 L93.7927442,21.4586667 L93.7927442,22.7872 C94.3875349,21.9285333 95.4744186,21.248 96.7367442,21.248 C99.000907,21.248 100.52586,22.9605333 100.52586,25.6714667 C100.52586,28.3642667 99.000907,30.1125333 96.7367442,30.1125333 C95.5450233,30.1125333 94.4773953,29.4997333 93.7927442,28.5392 L93.7927442,28.5392 L93.7927442,28.5392 Z M99.5448837,25.6714667 C99.5448837,23.6282667 98.4767209,22.0698667 96.5826977,22.0698667 C95.4064884,22.0698667 94.2816279,22.9914667 93.7927442,23.7952 L93.7927442,27.5290667 C94.2816279,28.3344 95.4064884,29.2896 96.5826977,29.2896 C98.4767209,29.2896 99.5448837,27.7178667 99.5448837,25.6714667 L99.5448837,25.6714667 L99.5448837,25.6714667 Z" id="Fill-9" fill="#0079FF"></path>
                    <path d="M101.772674,18.2378667 L102.685186,18.2378667 L102.685186,29.9024 L101.772674,29.9024 L101.772674,18.2378667 L101.772674,18.2378667 Z" id="Fill-10" fill="#0079FF"></path>
                    <path d="M112.930349,32.3690667 C113.125581,32.456 113.458814,32.5093333 113.670093,32.5093333 C114.228512,32.5093333 114.617372,32.2816 114.966651,31.4773333 L115.632581,29.9728 L112.036023,21.4586667 L113.054442,21.4586667 L116.139651,28.8368 L119.194907,21.4586667 L120.227767,21.4586667 L115.841186,31.7594667 C115.386,32.8208 114.669791,33.3312 113.68614,33.3312 C113.390884,33.3312 113.001488,33.2789333 112.773628,33.2090667 L112.930349,32.3690667" id="Fill-11" fill="#0079FF"></path>
                    <path d="M110.263419,29.8773333 C110.202442,29.5845333 110.156442,29.3264 110.122744,29.1109333 C110.09493,28.896 110.078884,28.6762667 110.078884,28.4528 C109.765977,28.9109333 109.322558,29.2922667 108.756116,29.5925333 C108.18914,29.8949333 107.650512,30.0432 106.911837,30.0432 C106.022326,30.0432 105.331791,29.8250667 104.839163,29.3824 C104.34814,28.9402667 104.101023,28.3413333 104.101023,27.5834667 C104.101023,26.8266667 104.45886,26.2122667 105.172395,25.7424 C105.88593,25.2704 106.80807,25.0357333 107.949512,25.0357333 L110.078884,25.0357333 L110.078884,23.9866667 C110.078884,23.3824 109.872419,22.9072 109.460023,22.5626667 C109.046023,22.2176 108.46514,22.0432 107.712023,22.0432 C107.023628,22.0432 106.465209,22.2026667 106.039977,22.5130667 C105.618488,22.8298667 105.40614,23.2224 105.40614,23.6954667 L104.471698,23.6954667 L104.452442,23.6501333 C104.418744,23.0122667 104.711326,22.4528 105.333395,21.9696 C105.952791,21.4869333 106.764209,21.2442667 107.762837,21.2442667 C108.758256,21.2442667 109.563791,21.4832 110.170884,21.96 C110.777442,22.432 111.081791,23.1141333 111.081791,24.0058667 L111.081791,28.1712 C111.081791,28.4704 111.096233,28.7594667 111.133674,29.0410667 C111.172186,29.3232 111.233698,29.6048 111.315535,29.8773333 L110.263419,29.8773333 L110.263419,29.8773333 Z M107.023628,29.2138667 C107.799209,29.2138667 108.356558,29.0410667 108.926209,28.6992 C109.492116,28.3594667 109.877233,27.9162667 110.078884,27.3797333 L110.078884,25.7584 L107.939349,25.7584 C107.122047,25.7584 106.445419,25.9386667 105.913209,26.3024 C105.37993,26.6650667 105.109814,27.104 105.109814,27.6144 C105.109814,28.096 105.280977,28.4810667 105.621163,28.7728 C105.962419,29.0677333 106.428837,29.2138667 107.023628,29.2138667 L107.023628,29.2138667 L107.023628,29.2138667 Z" id="Fill-12" fill="#0079FF"></path>
                    <g id="Google-Play-Icon" transform="translate(13.813953, 15.466667)" fill="#0079FF">
                        <path d="M14.0653052,6.60839959 L2.44542328,0.197601769 C2.11594732,0.0167311519 1.81206701,-0.0253444901 1.56591307,0.0517031141 L11.0836839,9.60068811 L14.0653052,6.60839959 Z M14.0805536,12.6077304 L18.0473353,10.4192506 C18.8516923,9.97390451 18.8516923,9.24932917 18.0473353,8.80507597 L14.0658497,6.60839959 L11.0836839,9.60068811 L14.0805536,12.6077304 Z M1.56536848,0.0517031141 C1.21193063,0.162629807 0.983203523,0.521638856 0.983203523,1.06479714 L0.985381876,18.1595294 C0.985381876,18.6966769 1.20702934,19.0502216 1.55012001,19.168252 L11.0836839,9.60232742 L1.56536848,0.0517031141 Z M1.55012001,19.168252 C1.79790771,19.2524032 2.10777849,19.2130598 2.44542328,19.0272712 L14.0789199,12.6077304 L11.0836839,9.60232742 L1.55012001,19.168252 Z" id="path-2"></path>
                    </g>
                    <path d="M36.7570233,8.66933333 C36.7570233,6.8768 38.0926279,5.72373333 39.7539767,5.72373333 C40.8670698,5.72373333 41.5945116,6.25333333 42.0486279,6.90186667 L41.2350698,7.37173333 C40.9269767,6.94453333 40.3872791,6.61226667 39.7539767,6.61226667 C38.6243023,6.61226667 37.7845349,7.4656 37.7845349,8.66933333 C37.7845349,9.85546667 38.6243023,10.7264 39.7539767,10.7264 C40.3364651,10.7264 40.8499535,10.4618667 41.1066977,10.2144 L41.1066977,9.33493333 L39.3945349,9.33493333 L39.3945349,8.45546667 L42.0999767,8.45546667 L42.0999767,10.5813333 C41.5436977,11.2048 40.7386977,11.6229333 39.7539767,11.6229333 C38.0926279,11.6229333 36.7570233,10.4538667 36.7570233,8.66933333" id="Fill-18" fill="#0079FF"></path>
                    <path d="M43.3387674,11.512 L43.3387674,5.8176 L47.2514419,5.8176 L47.2514419,6.6976 L44.3400698,6.6976 L44.3400698,8.16586667 L47.1915349,8.16586667 L47.1915349,9.0448 L44.3400698,9.0448 L44.3400698,10.6325333 L47.2514419,10.6325333 L47.2514419,11.512 L43.3387674,11.512" id="Fill-19" fill="#0079FF"></path>
                    <path d="M50.0232093,11.512 L50.0232093,6.6976 L48.2939302,6.6976 L48.2939302,5.8176 L52.7543256,5.8176 L52.7543256,6.6976 L51.0250465,6.6976 L51.0250465,11.512 L50.0232093,11.512" id="Fill-20" fill="#0079FF"></path>
                    <path d="M56.2358837,5.8176 L57.237186,5.8176 L57.237186,11.512 L56.2358837,11.512 L56.2358837,5.8176 L56.2358837,5.8176 Z" id="Fill-21" fill="#0079FF"></path>
                    <path d="M60.0271395,11.512 L60.0271395,6.6976 L58.2978605,6.6976 L58.2978605,5.8176 L62.7582558,5.8176 L62.7582558,6.6976 L61.0289767,6.6976 L61.0289767,11.512 L60.0271395,11.512" id="Fill-22" fill="#0079FF"></path>
                    <path d="M65.9916279,8.66933333 C65.9916279,6.97013333 67.1983256,5.72373333 68.9115581,5.72373333 C70.6146279,5.72373333 71.8309535,6.97013333 71.8309535,8.66933333 C71.8309535,10.368 70.6146279,11.6144 68.9115581,11.6144 C67.1983256,11.6144 65.9916279,10.368 65.9916279,8.66933333 L65.9916279,8.66933333 L65.9916279,8.66933333 Z M70.8034419,8.66933333 C70.8034419,7.4912 70.0583488,6.61226667 68.9115581,6.61226667 C67.7551395,6.61226667 67.0191395,7.4912 67.0191395,8.66933333 C67.0191395,9.8384 67.7551395,10.7264 68.9115581,10.7264 C70.0583488,10.7264 70.8034419,9.8384 70.8034419,8.66933333 L70.8034419,8.66933333 L70.8034419,8.66933333 Z" id="Fill-23" fill="#0079FF"></path>
                    <path d="M76.9818837,11.512 L74.0020465,7.44 L74.0020465,11.512 L73.0007442,11.512 L73.0007442,5.8176 L74.0282558,5.8176 L76.9476512,9.76213333 L76.9476512,5.8176 L77.9494884,5.8176 L77.9494884,11.512 L76.9818837,11.512" id="Fill-24" fill="#0079FF"></path>
                </g>
            </g>
        </g>
    </g>
</svg>