<?xml version="1.0" standalone="no"?>
<!DOCTYPE svg PUBLIC "-//W3C//DTD SVG 1.1//EN" "http://www.w3.org/Graphics/SVG/1.1/DTD/svg11.dtd" >
<svg xmlns="http://www.w3.org/2000/svg">
<metadata>
Created by FontPrep 20130207 at Thu Oct  2 17:49:23 2014
 By Anton Nemtsev
Copyright (c) 2012 by Andriy Konstantynov. All rights reserved.
</metadata>
<defs>
<font id="64ce59eaf8ce8be02d89b781b37c514b" horiz-adv-x='1024' >
  <font-face 
    font-family="CytiaPro-Light"
    font-weight="200"
    font-stretch="normal"
    units-per-em="2048"
    panose-1="2 0 3 3 0 0 0 0 0 0"
    ascent="1536"
    descent="-512"
    x-height="1024"
    cap-height="1434"
    bbox="-195 -516 2626 1946"
    underline-thickness="102"
    underline-position="-102"
    unicode-range="U+0020-20AC"
  />
<missing-glyph horiz-adv-x="1024" 
 />
    <glyph glyph-name=".notdef" horiz-adv-x="1024" 
 />
    <glyph glyph-name=".null" horiz-adv-x="0" 
 />
    <glyph glyph-name="nonmarkingreturn" horiz-adv-x="681" 
 />
    <glyph glyph-name="space" unicode=" " horiz-adv-x="518" 
 />
    <glyph glyph-name="exclam" unicode="!" 
d="M176 0v205h115v-205h-115zM291 426h-115v1008h115v-1008z" />
    <glyph glyph-name="quotedbl" unicode="&#x22;" horiz-adv-x="806" 
d="M618 920h-88l-14 514h115zM276 920h-88l-12 514h115z" />
    <glyph glyph-name="numbersign" unicode="#" horiz-adv-x="1650" 
d="M614 995l-100 -557h524l97 557h-521zM252 995v97h256l59 342h123l-61 -342h524l59 342h123l-61 -342h242v-97h-256l-101 -557h240v-98h-256l-60 -340h-122l59 340h-522l-60 -340h-123l60 340h-240v98h258l96 557h-237z" />
    <glyph glyph-name="dollar" unicode="$" horiz-adv-x="1169" 
d="M256 1072q0 -108 76 -168q76 -58 217 -111v542q-135 -6 -213 -82q-80 -73 -80 -181zM915 378q0 108 -75 165q-84 57 -230 108v-551q137 8 221 89t84 189zM610 -205h-61v197q-264 6 -443 209l66 65q145 -164 377 -170v578q-102 37 -132 49q-31 12 -95 47t-103 74
q-37 39 -59 94q-27 53 -27 123q0 164 115 269t301 112v196h61v-198q246 -18 406 -207l-64 -66q-137 156 -342 168v-567q215 -78 297 -133q131 -88 131 -248q0 -159 -118 -271t-310 -122v-199z" />
    <glyph glyph-name="percent" unicode="%" horiz-adv-x="1900" 
d="M1210 332q0 -106 64 -176t172 -70q106 0 171 70t64 176q0 106 -64 177q-65 71 -171 71t-171 -71t-65 -177zM1446 -6q-150 0 -243 94t-93 245t93 245t243 94t242 -94t92 -244t-92 -244q-92 -96 -242 -96zM219 1151q0 -106 68 -176q63 -70 170 -70t171 70t64 176t-64 177
t-170 71t-173 -71q-66 -71 -66 -177zM455 1491q151 0 243 -94t92 -245t-92 -245q-94 -94 -244 -94t-242 94q-93 94 -93 245t93 245t243 94zM586 0h-125l856 1485h125z" />
    <glyph glyph-name="ampersand" unicode="&#x26;" horiz-adv-x="1452" 
d="M455 1102q0 -114 86 -271q17 7 37 19t30 17t19 10l73 41q55 35 70 49l49 49q51 51 51 134t-55 139q-55 57 -146 57t-153 -64q-61 -66 -61 -180zM264 389q0 -133 88 -217q94 -84 230 -84q215 0 360 125q-274 238 -438 475q-116 -66 -178 -136t-62 -163zM666 1442
q139 0 231 -82q88 -86 88 -217q0 -53 -14 -90q-12 -45 -47 -82q-23 -29 -60 -66q-20 -25 -86 -61q-41 -27 -81 -49t-99 -56q139 -207 416 -450q133 170 133 428h102q0 -307 -153 -498q44 -38 94 -76t65 -49q14 -12 19 -16l26 -19l-73 -75q-80 55 -205 159
q-176 -152 -440 -151q-193 0 -313 110t-119 287q0 131 79 221q76 92 217 170q-106 180 -106 330t92 242q95 90 234 90z" />
    <glyph glyph-name="quotesingle" unicode="'" 
d="M276 920h-88l-12 514h115z" />
    <glyph glyph-name="parenleft" unicode="(" horiz-adv-x="579" 
d="M160 640q0 273 56 519t155 402l63 -68q-76 -141 -117 -371t-41 -483q0 -254 43 -483t117 -369l-65 -68q-99 156 -155 402t-56 519z" />
    <glyph glyph-name="parenright" unicode=")" horiz-adv-x="579" 
d="M420 641q0 -268 -55 -515t-154 -407l-66 68q74 137 117 369t43 485q0 252 -43 483t-117 369l66 68q97 -160 153 -406t56 -514z" />
    <glyph glyph-name="asterisk" unicode="*" horiz-adv-x="1038" 
d="M477 1485h82v-355l307 177l41 -70l-309 -178l309 -176l-41 -72l-307 176v-352h-82v352l-305 -176l-41 72l305 176l-305 178l41 70l305 -177v355z" />
    <glyph glyph-name="plus" unicode="+" horiz-adv-x="1200" 
d="M651 1184v-398h396v-98h-396v-395h-102v395h-393v98h393v398h102z" />
    <glyph glyph-name="comma" unicode="," 
d="M176 205h115q0 -154 -51 -295t-129 -219l-54 55q57 57 88 185t31 274z" />
    <glyph glyph-name="hyphen" unicode="-" horiz-adv-x="815" 
d="M639 545h-463v98h463v-98z" />
    <glyph glyph-name="period" unicode="." 
d="M176 0v205h115v-205h-115z" />
    <glyph glyph-name="slash" unicode="/" horiz-adv-x="698" 
d="M100 -205h-116l614 1690h117z" />
    <glyph glyph-name="zero" unicode="0" horiz-adv-x="1335" 
d="M238 717q0 -276 118 -451q119 -174 311 -174t308 174q119 170 119 451t-119 450q-117 174 -308 174t-310 -174t-119 -450zM119 717q0 324 151 524q148 201 396 201t395 -201q151 -201 151 -525t-151 -523q-147 -201 -395 -201t-398 200t-149 525z" />
    <glyph glyph-name="one" unicode="1" horiz-adv-x="940" 
d="M715 1434v-1434h-119v1303l-440 -244l-52 92l492 283h119z" />
    <glyph glyph-name="two" unicode="2" horiz-adv-x="1169" 
d="M137 0v100q2 0 32 23t52 37q147 118 243 200q224 190 363 414q82 141 82 244q0 145 -89 234t-234 89q-229 0 -381 -172l-68 68q180 205 457 205q190 0 312 -115t122 -293t-147 -379q-55 -76 -139 -167q-165 -178 -412 -359l-41 -29h764v-100h-916z" />
    <glyph glyph-name="three" unicode="3" horiz-adv-x="1177" 
d="M590 -8q-295 0 -479 203l69 71q143 -174 402 -174q158 0 257 87t99 225t-106 226t-275 87h-70v96h74q145 0 240 72q92 75 92 193t-85 191t-220 72q-252 0 -389 -174l-68 70q180 205 463 205q186 0 302 -98t116 -254q0 -117 -74 -203t-201 -121q150 -41 235 -141t85 -236
q0 -177 -130 -287t-337 -110z" />
    <glyph glyph-name="four" unicode="4" horiz-adv-x="1390" 
d="M942 346v920l-661 -920h661zM942 0v250h-811v72l793 1112h137v-1088h188v-96h-188v-250h-119z" />
    <glyph glyph-name="five" unicode="5" horiz-adv-x="1169" 
d="M186 754v680h770v-101h-651v-479h275q206 0 332 -126t126 -316t-129 -306q-131 -115 -331 -114q-293 0 -486 205l66 65q160 -170 409 -170q162 0 257 89q96 89 96 236t-96 241t-253 96h-385z" />
    <glyph glyph-name="six" unicode="6" horiz-adv-x="1230" 
d="M635 92q162 0 262 96q98 98 98 250t-114 248q-115 96 -293 96q-236 0 -350 -157q16 -237 126 -385t271 -148zM648 1341q-184 1 -293 -161q-108 -162 -117 -426q135 129 360 129q224 0 370 -126t146 -321t-131 -317q-129 -127 -351 -127t-370 201q-143 205 -143 527
t142 522t376 200t377 -150l-68 -67q-114 116 -298 116z" />
    <glyph glyph-name="seven" unicode="7" horiz-adv-x="1310" 
d="M152 1333v101h1015v-72l-692 -1362h-125l680 1333h-878z" />
    <glyph glyph-name="eight" unicode="8" horiz-adv-x="1234" 
d="M287 1074q0 -118 93 -192q92 -74 240 -73q148 0 240 74q90 75 90 193t-90 192q-92 74 -240 74t-239 -76q-94 -74 -94 -192zM238 405q0 -139 106 -226t274 -87t274 87t105 226q0 139 -105 227q-106 88 -274 87q-168 1 -274 -87t-106 -227zM168 1090q0 160 125 253
q125 99 325 99t326 -99q125 -94 125 -253q0 -117 -73 -203t-199 -121q151 -41 235 -141t84 -236q0 -174 -137 -287q-141 -110 -361 -110t-360 110q-139 110 -139 287q0 135 86 238q88 98 235 139q-128 35 -200 121t-72 203z" />
    <glyph glyph-name="nine" unicode="9" horiz-adv-x="1228" 
d="M594 1341q-164 0 -260 -101t-96 -259t108 -259t287 -101q119 0 213 50t143 138q-16 244 -125 387q-106 145 -270 145zM565 92q182 0 299 158q115 158 125 420q-129 -150 -357 -150t-372 127q-141 129 -141 334t131 333t350 128q220 0 364 -200t144 -524t-151 -526
q-151 -200 -395 -200t-398 149l67 68q123 -117 334 -117z" />
    <glyph glyph-name="colon" unicode=":" 
d="M176 819v205h115v-205h-115zM176 0v205h115v-205h-115z" />
    <glyph glyph-name="semicolon" unicode=";" 
d="M176 819v205h115v-205h-115zM176 205h115q0 -154 -51 -295t-129 -219l-54 55q57 57 88 185t31 274z" />
    <glyph glyph-name="less" unicode="&#x3c;" horiz-adv-x="1298" 
d="M117 676v86l1063 487v-119l-901 -411l901 -412v-121z" />
    <glyph glyph-name="equal" unicode="=" horiz-adv-x="1376" 
d="M1200 942h-1024v96h1024v-96zM1200 422h-1024v98h1024v-98z" />
    <glyph glyph-name="greater" unicode="&#x3e;" horiz-adv-x="1298" 
d="M1180 760v-86l-1063 -488v119l901 412l-901 411v121z" />
    <glyph glyph-name="question" unicode="?" horiz-adv-x="1056" 
d="M578 428h-115q1 110 29 190t65 111q48 54 172 148q39 25 67 77t27 127q0 115 -79 190t-222 75q-209 0 -366 -177l-62 64q180 209 436 209q186 0 298 -100t112 -249q0 -150 -72 -237q-45 -45 -104 -87t-101 -90q-85 -95 -85 -251zM463 0v205h115v-205h-115z" />
    <glyph glyph-name="at" unicode="@" horiz-adv-x="2187" 
d="M1110 936q-170 0 -284 -125t-114 -312t97 -298q96 -111 247 -111t247 103q98 100 100 256v442q-123 45 -293 45zM1099 -469q-435 0 -703 273q-268 274 -269 706q0 432 268 711q269 272 699 272t696 -264q270 -262 270 -684q0 -272 -114 -412q-115 -139 -265 -139
q-113 0 -191 75t-77 199q-49 -129 -156 -202q-109 -72 -247 -72q-182 0 -297 137q-115 143 -115 373t154 377q152 151 385 151t381 -69v-633q0 -108 53 -174t127 -66q96 0 171 116t75 339q0 375 -236 614q-242 238 -618 238t-612 -249t-236 -637t237 -638q238 -246 613 -246
q425 0 663 223l64 -63q-285 -256 -720 -256z" />
    <glyph glyph-name="A" unicode="A" horiz-adv-x="1693" 
d="M848 1300l-367 -774h736zM786 1434h125l672 -1434h-123l-196 422h-830l-198 -422h-125z" />
    <glyph glyph-name="B" unicode="B" horiz-adv-x="1245" 
d="M647 1329h-350v-530h350q119 0 197 73q76 76 76 193t-77 191t-196 73zM297 104h391q137 0 220 83t83 211t-84 216q-86 82 -219 82h-391v-592zM176 0v1434h504q160 0 260 -100t100 -257q0 -109 -53 -195t-141 -126q122 -31 196 -130t74 -254q0 -156 -108 -264t-283 -108
h-549z" />
    <glyph glyph-name="C" unicode="C" horiz-adv-x="1503" 
d="M840 -8q-324 0 -523 201t-199 525t202 524q200 200 522 200t524 -207l-74 -76q-166 178 -440 178t-442 -172t-168 -448q0 -277 168 -449t445 -172t437 178l74 -73q-202 -209 -526 -209z" />
    <glyph glyph-name="D" unicode="D" horiz-adv-x="1511" 
d="M1270 717q0 272 -164 442q-160 170 -420 170h-389v-1225h389q260 0 422 170t162 443zM176 0v1434h510q315 0 510 -201q197 -197 197 -516t-197 -516q-195 -201 -510 -201h-510z" />
    <glyph glyph-name="E" unicode="E" horiz-adv-x="1275" 
d="M176 0v1434h954v-105h-833v-543h778v-104h-778v-578h848v-104h-969z" />
    <glyph glyph-name="F" unicode="F" horiz-adv-x="1261" 
d="M176 0v1434h954v-105h-833v-577h772v-105h-772v-647h-121z" />
    <glyph glyph-name="G" unicode="G" horiz-adv-x="1542" 
d="M825 647v105h541v-551q-202 -209 -526 -209t-521 201q-201 199 -201 521t201 527q201 201 523 201t524 -207l-74 -76q-166 178 -440 178t-442 -172q-168 -171 -168 -449t167 -449t425 -171t409 137v414h-418z" />
    <glyph glyph-name="H" unicode="H" horiz-adv-x="1527" 
d="M1231 0v682h-934v-682h-121v1434h121v-648h934v648h123v-1434h-123z" />
    <glyph glyph-name="I" unicode="I" horiz-adv-x="473" 
d="M297 0h-121v1434h121v-1434z" />
    <glyph glyph-name="J" unicode="J" horiz-adv-x="1196" 
d="M897 512v922h123v-922q0 -228 -146 -374t-376 -146q-231 0 -381 149l76 74q107 -119 293 -119t298 117q113 113 113 299z" />
    <glyph glyph-name="K" unicode="K" horiz-adv-x="1353" 
d="M297 0h-121v1434h121v-744l741 744h156l-623 -629l689 -805h-146l-625 721l-192 -199v-522z" />
    <glyph glyph-name="L" unicode="L" horiz-adv-x="1312" 
d="M176 0v1434h121v-1330h885v-104h-1006z" />
    <glyph glyph-name="M" unicode="M" horiz-adv-x="1906" 
d="M176 0v1434h158l618 -1270l619 1270h158v-1434h-121v1243l-607 -1243h-98l-606 1243v-1243h-121z" />
    <glyph glyph-name="N" unicode="N" horiz-adv-x="1556" 
d="M297 0h-121v1434h121l960 -1244v1244h123v-1434h-123l-960 1243v-1243z" />
    <glyph glyph-name="O" unicode="O" horiz-adv-x="1667" 
d="M242 717q0 -272 164 -447q166 -174 430 -174t427 174t163 446t-164 447q-162 174 -426 174t-429 -174t-165 -446zM119 717q-1 325 199 525t516 200t515 -201t199 -525t-200 -524t-514 -200q-315 0 -515 200t-200 525z" />
    <glyph glyph-name="P" unicode="P" horiz-adv-x="1200" 
d="M639 1329h-342v-665h342q143 0 229 92q90 90 90 238t-88 243q-90 92 -231 92zM176 0v1434h475q188 0 312 -123q119 -123 119 -315t-119 -316q-125 -121 -312 -121h-354v-559h-121z" />
    <glyph glyph-name="Q" unicode="Q" horiz-adv-x="1701" 
d="M1425 733q-1 256 -163 430t-426 174t-429 -174t-165 -446t164 -447q166 -174 415 -174t402 135l-262 263l73 75l258 -256q133 164 133 420zM816 -8q-298 0 -499 201q-199 201 -199 525t200 524t516 200t515 -201t199 -512t-172 -504l168 -166l-74 -75l-170 168
q-186 -160 -484 -160z" />
    <glyph glyph-name="R" unicode="R" horiz-adv-x="1236" 
d="M297 731h387q127 0 207 83t80 216t-80 216t-207 83h-387v-598zM297 627v-627h-121v1434h522q178 0 287 -113t109 -291t-111 -291t-285 -112h-34l481 -627h-139l-482 627h-227z" />
    <glyph glyph-name="S" unicode="S" horiz-adv-x="1169" 
d="M1038 399q0 -182 -133 -295t-338 -112q-272 0 -461 209l66 65q152 -170 393 -170q158 0 254 82t96 215q0 78 -56 133q-57 54 -117 76t-124 47t-90 35t-66 26t-71 29q-137 53 -198 142q-59 72 -60 180q0 170 121 275t311 106q270 0 451 -209l-64 -66q-147 170 -377 170
q-147 0 -231 -75q-88 -74 -88 -184t80 -177q80 -63 196 -106q90 -29 216 -77t208 -126t82 -193z" />
    <glyph glyph-name="T" unicode="T" horiz-adv-x="1497" 
d="M125 1329v105h1247v-105h-563v-1329h-121v1329h-563z" />
    <glyph glyph-name="U" unicode="U" horiz-adv-x="1585" 
d="M1288 621v813h123v-813q0 -283 -169 -456t-447 -173t-449 172q-170 174 -170 457v813h121v-813q0 -231 137 -379q142 -146 362 -146t355 146q137 143 137 379z" />
    <glyph glyph-name="V" unicode="V" horiz-adv-x="1693" 
d="M846 131l606 1303h131l-676 -1434h-125l-671 1434h129z" />
    <glyph glyph-name="W" unicode="W" horiz-adv-x="2433" 
d="M758 0h-131l-516 1434h120l459 -1270l461 1270h131l457 -1270l461 1270h120l-518 -1434h-131l-454 1274z" />
    <glyph glyph-name="X" unicode="X" horiz-adv-x="1525" 
d="M238 0h-142l590 731l-565 703h141l500 -617l500 617h141l-567 -703l591 -731h-141l-524 643z" />
    <glyph glyph-name="Y" unicode="Y" horiz-adv-x="1507" 
d="M690 0v545l-577 889h127l512 -777l514 777h127l-580 -889v-545h-123z" />
    <glyph glyph-name="Z" unicode="Z" horiz-adv-x="1533" 
d="M176 1329v105h1215v-72l-1063 -1258h1075v-104h-1245v72l1065 1257h-1047z" />
    <glyph glyph-name="bracketleft" unicode="[" horiz-adv-x="671" 
d="M217 -256v1792h289v-96h-174v-1600h174v-96h-289z" />
    <glyph glyph-name="backslash" unicode="\" horiz-adv-x="698" 
d="M715 -205h-117l-614 1690h116z" />
    <glyph glyph-name="bracketright" unicode="]" horiz-adv-x="671" 
d="M455 1536v-1792h-289v96h174v1600h-174v96h289z" />
    <glyph glyph-name="asciicircum" unicode="^" horiz-adv-x="1050" 
d="M133 1202l406 311l407 -311l-61 -63l-346 262l-344 -262z" />
    <glyph glyph-name="underscore" unicode="_" horiz-adv-x="1200" 
d="M1200 -168h-1198v96h1198v-96z" />
    <glyph glyph-name="grave" unicode="`" horiz-adv-x="669" 
d="M150 1462l73 74l299 -301l-51 -51z" />
    <glyph glyph-name="a" unicode="a" horiz-adv-x="1142" 
d="M236 294q0 -98 74 -152t210 -54t238 117q98 119 98 287q-98 32 -257 32t-261 -66t-102 -164zM555 1032q186 0 301 -108t115 -273v-651h-115v260q-49 -122 -153 -194t-248 -72t-240 79t-96 213t135 226t350 92q143 0 252 -26v71q0 127 -82 207t-211 80q-205 0 -330 -100
l-63 61q150 135 385 135z" />
    <glyph glyph-name="b" unicode="b" horiz-adv-x="1230" 
d="M590 88q176 0 292 117t116 306t-97 306q-96 117 -251 117t-256 -101t-103 -255v-447q123 -43 299 -43zM176 1485h115v-721q49 123 155 194q113 72 250 72q186 0 299 -145q117 -141 117 -373t-157 -376t-395 -144t-384 69v1424z" />
    <glyph glyph-name="c" unicode="c" horiz-adv-x="1118" 
d="M119 512q0 232 143 377q146 143 376 143t374 -149l-66 -68q-115 121 -299 121t-299 -117q-112 -119 -112 -307t112 -307q115 -117 300 -117t298 119l66 -66q-142 -149 -372 -149t-378 143q-143 145 -143 377z" />
    <glyph glyph-name="d" unicode="d" horiz-adv-x="1241" 
d="M644 934q-185 0 -297 -124q-111 -124 -111 -313t98 -298t254 -109t258 121t104 301v336q-121 86 -306 86zM950 1485h117v-1485h-117v299q-49 -139 -156 -222t-253 -83q-186 0 -304 138t-118 369t142 381t370 148q188 0 319 -88v543z" />
    <glyph glyph-name="e" unicode="e" horiz-adv-x="1193" 
d="M236 569h727q-5 162 -107 263q-102 102 -254 102t-251 -100t-115 -265zM644 -8q-232 0 -380 143q-145 150 -145 378q0 227 134 373t347 146t346 -143q133 -150 133 -377v-29h-846q6 -175 121 -285q114 -110 302 -110t300 119l66 -68q-146 -147 -378 -147z" />
    <glyph glyph-name="f" unicode="f" horiz-adv-x="931" 
d="M624 1397q-107 0 -172 -64t-65 -159v-150h410v-96h-410v-928h-117v928h-153v96h153v139q0 147 96 239t250 91q152 0 250 -102l-63 -64q-72 70 -179 70z" />
    <glyph glyph-name="g" unicode="g" horiz-adv-x="1230" 
d="M641 936q-172 0 -289 -124q-116 -124 -116 -313t97 -299t252 -110t251 103q100 98 104 256v442q-127 45 -299 45zM536 -373q190 0 295 105q109 102 109 268v260q-51 -127 -158 -194q-106 -72 -247 -72q-180 0 -299 137q-117 141 -117 371q1 230 157 380t392 150t389 -69
v-963q0 -205 -139 -337q-138 -132 -372 -132t-390 150l65 65q125 -119 315 -119z" />
    <glyph glyph-name="h" unicode="h" horiz-adv-x="1251" 
d="M961 0v627q0 137 -84 225q-88 84 -234 84t-248 -125t-104 -307v-504h-115v1485h115v-752q55 135 163 217t262 82q155 0 259 -106q102 -109 102 -277v-649h-116z" />
    <glyph glyph-name="i" unicode="i" 
d="M176 1255v179h115v-179h-115zM291 0h-115v1024h115v-1024z" />
    <glyph glyph-name="j" unicode="j" horiz-adv-x="548" 
d="M258 1255v179h115v-179h-115zM32 -373q102 1 164 65t62 171v1161h115v-1157q0 -147 -90 -244q-92 -92 -239 -92t-239 96l64 66q61 -66 163 -66z" />
    <glyph glyph-name="k" unicode="k" horiz-adv-x="1101" 
d="M291 0h-115v1485h115v-1004l532 543h142l-451 -465l518 -559h-139l-455 483l-147 -153v-330z" />
    <glyph glyph-name="l" unicode="l" horiz-adv-x="632" 
d="M392 -8q-96 0 -159 61q-57 61 -57 158v1274h115v-1282q0 -49 31 -82q32 -33 80 -33t79 31l64 -64q-57 -63 -153 -63z" />
    <glyph glyph-name="m" unicode="m" horiz-adv-x="1812" 
d="M848 0v651q0 131 -69 208t-191 77t-208 -98q-87 -98 -89 -250v-588h-115v1024h115v-221q49 105 142 167t203 62t189 -60q78 -60 115 -165q51 105 147 165q97 60 233 60t226 -108t90 -273v-651h-114v651q0 131 -71 208t-193 77t-209 -100q-84 -106 -84 -263v-573h-117z
" />
    <glyph glyph-name="n" unicode="n" horiz-adv-x="1251" 
d="M961 0v627q0 141 -84 225t-232 84t-250 -125t-104 -307v-504h-115v1024h115v-291q55 135 163 217t262 82q155 0 259 -106q102 -109 102 -277v-649h-116z" />
    <glyph glyph-name="o" unicode="o" horiz-adv-x="1271" 
d="M236 512q0 -188 112 -306t289 -118q178 0 290 118t111 306q0 188 -112 306t-289 118t-289 -118t-112 -306zM119 512q0 227 143 377q150 143 375 143t373 -143q143 -145 143 -377t-143 -377q-146 -143 -372 -143t-376 143q-143 150 -143 377z" />
    <glyph glyph-name="p" unicode="p" horiz-adv-x="1241" 
d="M291 496v-322q121 -84 305 -84t297 117t113 307t-98 304t-258 114q-159 0 -257 -125q-102 -121 -102 -311zM174 -461v1485h117v-301q49 143 158 223q104 84 251 84q188 0 304 -145q116 -141 116 -371t-141 -376q-141 -144 -369 -144q-190 0 -319 86v-541h-117z" />
    <glyph glyph-name="q" unicode="q" horiz-adv-x="1230" 
d="M640 936q-171 0 -288 -123q-116 -123 -116 -313t95 -300t252 -110t253 103q100 98 104 256v440q-129 47 -300 47zM940 -461v721q-51 -127 -158 -194q-106 -72 -247 -72q-180 0 -299 137q-117 141 -117 371q1 230 157 380t392 150t389 -69v-1424h-117z" />
    <glyph glyph-name="r" unicode="r" horiz-adv-x="845" 
d="M709 1032v-104q-182 0 -295 -125q-117 -123 -123 -314v-489h-115v1024h115v-319q49 152 160 237q108 90 258 90z" />
    <glyph glyph-name="s" unicode="s" horiz-adv-x="921" 
d="M801 287q0 -127 -101 -213q-104 -82 -249 -82q-207 0 -345 149l66 66q100 -119 279 -119q101 0 167 55t66 128t-56 115t-119 64t-164 60q-216 83 -216 246q0 125 90 198q86 78 227 78q205 0 330 -149l-63 -64q-102 117 -262 117q-91 0 -149 -50t-58 -120q0 -124 196 -188
q72 -25 159 -59t144 -93q58 -55 58 -139z" />
    <glyph glyph-name="t" unicode="t" horiz-adv-x="937" 
d="M117 928v96h153v236h117v-236h406v-96h-406v-590q0 -109 68 -180q63 -70 171 -70t177 70l63 -64q-98 -102 -250 -102t-251 96q-94 98 -95 252v588h-153z" />
    <glyph glyph-name="u" unicode="u" horiz-adv-x="1251" 
d="M291 1024v-608q0 -150 85 -239q86 -89 234 -89t249 130t102 321v485h116v-1024h-116v291q-55 -139 -164 -219t-263 -80t-255 114q-102 114 -103 297v621h115z" />
    <glyph glyph-name="v" unicode="v" horiz-adv-x="1286" 
d="M698 0h-114l-471 1024h114l414 -897l414 897h119z" />
    <glyph glyph-name="w" unicode="w" horiz-adv-x="1839" 
d="M600 0h-108l-377 1024h112l322 -868l315 868h109l315 -868l324 868h112l-376 -1024h-111l-317 864z" />
    <glyph glyph-name="x" unicode="x" horiz-adv-x="1175" 
d="M225 0h-135l428 524l-405 500h133l342 -422l342 422h135l-408 -500l428 -524h-135l-362 444z" />
    <glyph glyph-name="y" unicode="y" horiz-adv-x="1284" 
d="M309 -469q-137 0 -213 80l64 65q48 -49 126 -49t128 54q49 59 92 157l78 166l-471 1020h114l414 -891l416 891h117l-572 -1229q-57 -127 -127 -195t-166 -69z" />
    <glyph glyph-name="z" unicode="z" horiz-adv-x="1187" 
d="M162 928v96h866v-70l-727 -858h735v-96h-884v70l720 858h-710z" />
    <glyph glyph-name="braceleft" unicode="{" horiz-adv-x="788" 
d="M166 586v98q97 0 133 221q31 240 80 410q27 94 88 158q63 63 156 63v-96q-68 0 -109 -78q-42 -78 -64 -218t-33 -227q-11 -86 -48 -176t-99 -106q62 -17 98 -105t49 -180t38 -244q14 -110 56 -188t112 -78v-96q-109 0 -177 88q-66 88 -92 217t-40 243q-15 114 -51 204
t-97 90z" />
    <glyph glyph-name="bar" unicode="|" 
d="M291 -205h-115v1690h115v-1690z" />
    <glyph glyph-name="braceright" unicode="}" horiz-adv-x="788" 
d="M623 586q-101 0 -137 -240q-18 -118 -31 -182q-41 -264 -135 -358q-62 -62 -154 -62v96q70 0 108 78q41 76 63 208t34 224t51 182q33 86 94 103q-61 16 -97 106t-47 176q-12 87 -34 227q-47 296 -172 296v96q92 0 153 -63t91 -158q31 -119 45 -205q13 -63 31 -181
q36 -245 137 -245v-98z" />
    <glyph glyph-name="asciitilde" unicode="~" horiz-adv-x="940" 
d="M638 625q59 0 126 67l65 -65q-102 -102 -206 -103q-55 0 -155 41t-162 41q-60 0 -130 -67l-65 65q102 102 208 103q55 0 157 -41t162 -41z" />
    <glyph glyph-name="circumflex" unicode="&#x2c6;" horiz-adv-x="882" 
d="M133 1309l322 229l321 -229l-61 -64l-260 185l-260 -185z" />
    <glyph glyph-name="caron" unicode="&#x2c7;" horiz-adv-x="882" 
d="M774 1475l-319 -232l-322 230l62 63l260 -184l260 184z" />
    <glyph glyph-name="breve" unicode="&#x2d8;" horiz-adv-x="944" 
d="M473 1260q-203 0 -342 147l62 61q113 -118 279 -118t280 118l61 -61q-137 -147 -340 -147z" />
    <glyph glyph-name="dotaccent" unicode="&#x2d9;" 
d="M176 1255v179h115v-179h-115z" />
    <glyph glyph-name="ring" unicode="&#x2da;" horiz-adv-x="589" 
d="M199 1378q0 -43 26 -73q33 -29 74 -29t74 29q27 31 27 73t-27 74q-33 29 -74 29t-74 -29q-26 -31 -26 -74zM141 1378q0 72 43 117t114 45t115 -45t44 -117t-43 -116q-45 -43 -116 -43q-71 -1 -114 43t-43 116z" />
    <glyph glyph-name="ogonek" unicode="&#x2db;" horiz-adv-x="618" 
d="M264 -334q0 -52 27 -80q31 -27 76 -26q78 0 129 57l49 -51q-76 -82 -166 -82t-141 45q-50 45 -50 121t41 160q35 82 78 139l41 51h88q-57 -67 -125 -188q-47 -94 -47 -146z" />
    <glyph glyph-name="tilde" unicode="&#x2dc;" horiz-adv-x="940" 
d="M326 1454q53 0 155 -41t161 -41t128 68l55 -56q-102 -102 -207 -102q-55 0 -155 41q-101 41 -161 41t-132 -66l-53 54q102 102 209 102z" />
    <glyph glyph-name="hungarumlaut" unicode="&#x2dd;" horiz-adv-x="1142" 
d="M977 1536l72 -74l-320 -278l-53 51zM502 1536l71 -74l-319 -278l-51 51z" />
    <glyph glyph-name="uni0400" unicode="&#x400;" horiz-adv-x="1275" 
d="M449 1872l73 74l299 -301l-51 -52zM176 0v1434h954v-105h-833v-543h778v-104h-778v-578h848v-104h-969z" />
    <glyph glyph-name="uni0401" unicode="&#x401;" horiz-adv-x="1275" 
d="M815 1665v178h117v-178h-117zM342 1665v178h115v-178h-115zM176 0v1434h954v-105h-833v-543h778v-104h-778v-578h848v-104h-969z" />
    <glyph glyph-name="uni0402" unicode="&#x402;" horiz-adv-x="1779" 
d="M1481 0v522q0 131 -84 219q-89 82 -233 82t-246 -121t-109 -305v-397h-121v1329h-563v105h1247v-105h-563v-711q51 139 162 226q113 82 267 82t259 -106q104 -106 105 -277v-543q-1 -273 -181 -453l-53 56q113 113 113 397z" />
    <glyph glyph-name="uni0403" unicode="&#x403;" horiz-adv-x="1230" 
d="M727 1946l72 -74l-320 -279l-51 52zM176 0v1434h924v-105h-803v-1329h-121z" />
    <glyph glyph-name="uni0404" unicode="&#x404;" horiz-adv-x="1503" 
d="M1196 786v-104h-952q8 -258 174 -424q172 -162 444 -162t430 178l74 -73q-202 -209 -526 -209t-521 201q-201 199 -201 521t201 527q201 201 523 201t524 -207l-74 -76q-166 178 -432 178q-266 1 -429 -151t-185 -400h950z" />
    <glyph glyph-name="uni0405" unicode="&#x405;" horiz-adv-x="1169" 
d="M1038 399q0 -182 -133 -295t-338 -112q-272 0 -461 209l66 65q152 -170 393 -170q158 0 254 82t96 215q0 88 -79 150q-80 59 -228 111t-198 71q-115 45 -197 129q-80 84 -80 207q0 170 121 275t311 106q270 0 451 -209l-64 -66q-147 170 -377 170q-147 0 -231 -75
q-88 -74 -88 -195q0 -86 59 -145q57 -63 144 -95q81 -35 151 -61t133 -52t93 -38q92 -43 143 -111q59 -66 59 -166z" />
    <glyph glyph-name="uni0406" unicode="&#x406;" horiz-adv-x="473" 
d="M297 0h-121v1434h121v-1434z" />
    <glyph glyph-name="uni0407" unicode="&#x407;" 
d="M360 1587v178h115v-178h-115zM-2 1587v178h117v-178h-117zM297 0h-121v1434h121v-1434z" />
    <glyph glyph-name="uni0408" unicode="&#x408;" horiz-adv-x="1196" 
d="M897 512v922h123v-922q0 -228 -146 -374t-376 -146q-231 0 -381 149l76 74q107 -119 293 -119t298 117q113 113 113 299z" />
    <glyph glyph-name="uni0409" unicode="&#x409;" horiz-adv-x="2396" 
d="M1448 104h389q141 0 229 92t88 238t-88 238t-229 92h-389v-660zM1327 0v1329h-702q0 -753 -68 -1045t-268 -292q-104 0 -205 84l72 71q63 -51 131 -51q119 0 167 301t48 1037h946v-566h403q187 0 307 -120t120 -314t-120 -314t-307 -120h-524z" />
    <glyph glyph-name="uni040A" unicode="&#x40a;" horiz-adv-x="2299" 
d="M1354 104h389q141 0 227 93q88 90 88 237q0 146 -87 238t-228 92h-389v-660zM1231 0v682h-934v-682h-121v1434h121v-648h934v648h123v-566h401q186 0 306 -120t120 -314t-120 -314t-306 -120h-524z" />
    <glyph glyph-name="uni040B" unicode="&#x40b;" horiz-adv-x="1779" 
d="M1481 0v522q0 131 -84 219q-87 82 -235 82t-250 -127t-103 -317v-379h-121v1329h-563v105h1247v-105h-563v-704q51 137 161 219t266 82t261 -106q104 -106 105 -277v-543h-121z" />
    <glyph glyph-name="uni040C" unicode="&#x40c;" horiz-adv-x="1353" 
d="M788 1946l72 -74l-319 -279l-52 52zM297 0h-121v1434h121v-744l741 744h156l-623 -629l689 -805h-146l-625 721l-192 -199v-522z" />
    <glyph glyph-name="uni040D" unicode="&#x40d;" horiz-adv-x="1556" 
d="M590 1872l74 74l299 -301l-52 -52zM176 0v1434h121v-1244l960 1244h123v-1434h-123v1243l-960 -1243h-121z" />
    <glyph glyph-name="uni040E" unicode="&#x40e;" horiz-adv-x="1540" 
d="M767 1759q167 0 280 119l61 -61q-139 -147 -341 -147t-341 147l61 61q113 -119 280 -119zM356 96q152 0 222 125l124 207l-589 1006h131l524 -889l526 889h131l-743 -1264q-109 -178 -317 -178q-164 0 -273 104l70 72q72 -72 194 -72z" />
    <glyph glyph-name="uni040F" unicode="&#x40f;" horiz-adv-x="1536" 
d="M707 0h-531v1434h121v-1330h940v1330h123v-1434h-533v-358h-120v358z" />
    <glyph glyph-name="uni0410" unicode="&#x410;" horiz-adv-x="1693" 
d="M848 1300l-367 -774h736zM786 1434h125l672 -1434h-123l-196 422h-830l-198 -422h-125z" />
    <glyph glyph-name="uni0411" unicode="&#x411;" horiz-adv-x="1255" 
d="M297 104h430q127 0 207 82q78 84 78 213t-80 215q-82 82 -205 82h-430v-592zM176 0v1434h856v-105h-735v-530h442q174 0 285 -111q109 -115 109 -289t-109 -288q-111 -111 -285 -111h-563z" />
    <glyph glyph-name="uni0412" unicode="&#x412;" horiz-adv-x="1245" 
d="M647 1329h-350v-530h350q119 0 197 73q76 76 76 193t-77 191t-196 73zM297 104h391q137 0 220 83t83 211t-84 216q-86 82 -219 82h-391v-592zM176 0v1434h504q160 0 260 -100t100 -257q0 -109 -53 -195t-141 -126q122 -31 196 -130t74 -254q0 -156 -108 -264t-283 -108
h-549z" />
    <glyph glyph-name="uni0413" unicode="&#x413;" horiz-adv-x="1230" 
d="M176 0v1434h924v-105h-803v-1329h-121z" />
    <glyph glyph-name="uni0414" unicode="&#x414;" horiz-adv-x="1873" 
d="M1366 104v1225h-702q0 -526 -33 -833q-37 -290 -125 -392h860zM176 -358v462h184q102 37 142 344t41 986h944v-1330h213v-462h-123v358h-1280v-358h-121z" />
    <glyph glyph-name="uni0415" unicode="&#x415;" horiz-adv-x="1275" 
d="M176 0v1434h954v-105h-833v-543h778v-104h-778v-578h848v-104h-969z" />
    <glyph glyph-name="uni0416" unicode="&#x416;" horiz-adv-x="2103" 
d="M1114 0h-123v522l-182 193l-567 -715h-142l627 801l-573 633h147l690 -752v752h123v-752l688 752h150l-574 -633l627 -801h-141l-568 715l-182 -193v-522z" />
    <glyph glyph-name="uni0417" unicode="&#x417;" horiz-adv-x="1212" 
d="M373 696v103h239q121 0 199 73q74 78 74 195t-83 194t-220 76q-233 0 -363 -172l-69 68q170 209 442 209q184 0 299 -103q117 -98 117 -262q0 -106 -54 -194t-141 -127q121 -31 196 -130t74 -239q0 -174 -132 -285t-349 -110q-299 0 -496 207l68 67q158 -170 428 -170
q156 0 256 84q98 86 98 218t-83 215t-218 83h-282z" />
    <glyph glyph-name="uni0418" unicode="&#x418;" horiz-adv-x="1556" 
d="M176 0v1434h121v-1244l960 1244h123v-1434h-123v1243l-960 -1243h-121z" />
    <glyph glyph-name="uni0419" unicode="&#x419;" horiz-adv-x="1556" 
d="M777 1679q191 0 308 117l62 -61q-141 -147 -369 -147t-368 147l59 61q117 -117 308 -117zM176 0v1434h121v-1244l960 1244h123v-1434h-123v1243l-960 -1243h-121z" />
    <glyph glyph-name="uni041A" unicode="&#x41a;" horiz-adv-x="1353" 
d="M297 0h-121v1434h121v-744l741 744h156l-623 -629l689 -805h-146l-625 721l-192 -199v-522z" />
    <glyph glyph-name="uni041B" unicode="&#x41b;" horiz-adv-x="1624" 
d="M502 1434h946v-1434h-121v1329h-702q0 -753 -68 -1045t-268 -292q-104 0 -205 84l72 71q63 -51 131 -51q119 0 167 302t48 1036z" />
    <glyph glyph-name="uni041C" unicode="&#x41c;" horiz-adv-x="1906" 
d="M176 0v1434h158l618 -1270l619 1270h158v-1434h-121v1243l-607 -1243h-98l-606 1243v-1243h-121z" />
    <glyph glyph-name="uni041D" unicode="&#x41d;" horiz-adv-x="1527" 
d="M1231 0v682h-934v-682h-121v1434h121v-648h934v648h123v-1434h-123z" />
    <glyph glyph-name="uni041E" unicode="&#x41e;" horiz-adv-x="1667" 
d="M242 717q0 -272 164 -447q166 -174 430 -174t427 174t163 446t-164 447q-162 174 -426 174t-429 -174t-165 -446zM119 717q-1 325 199 525t516 200t515 -201t199 -525t-200 -524t-514 -200q-315 0 -515 200t-200 525z" />
    <glyph glyph-name="uni041F" unicode="&#x41f;" horiz-adv-x="1536" 
d="M1237 0v1329h-940v-1329h-121v1434h1184v-1434h-123z" />
    <glyph glyph-name="uni0420" unicode="&#x420;" horiz-adv-x="1200" 
d="M639 1329h-342v-665h342q143 0 229 92q90 90 90 238t-88 243q-90 92 -231 92zM176 0v1434h475q188 0 312 -123q119 -123 119 -315t-119 -316q-125 -121 -312 -121h-354v-559h-121z" />
    <glyph glyph-name="uni0421" unicode="&#x421;" horiz-adv-x="1503" 
d="M840 -8q-324 0 -523 201t-199 525t202 524q200 200 522 200t524 -207l-74 -76q-166 178 -440 178t-442 -172t-168 -448q0 -277 168 -449t445 -172t437 178l74 -73q-202 -209 -526 -209z" />
    <glyph glyph-name="uni0422" unicode="&#x422;" horiz-adv-x="1497" 
d="M125 1329v105h1247v-105h-563v-1329h-121v1329h-563z" />
    <glyph glyph-name="uni0423" unicode="&#x423;" horiz-adv-x="1540" 
d="M356 96q152 0 222 125l124 207l-589 1006h131l524 -889l526 889h131l-743 -1264q-109 -178 -317 -178q-164 0 -273 104l70 72q72 -72 194 -72z" />
    <glyph glyph-name="uni0424" unicode="&#x424;" horiz-adv-x="1593" 
d="M735 254v926q-219 0 -358 -129t-139 -334t139 -334t358 -129zM858 1180v-926q219 0 359 129q139 129 139 334t-138 334t-360 129zM858 0h-123v150q-272 0 -448 157q-172 158 -172 411q0 254 174 410t446 156v150h123v-150q274 -4 446 -160t173 -408q0 -252 -173 -410
q-173 -157 -446 -156v-150z" />
    <glyph glyph-name="uni0425" unicode="&#x425;" horiz-adv-x="1525" 
d="M238 0h-142l590 731l-565 703h141l500 -617l500 617h141l-567 -703l591 -731h-141l-524 643z" />
    <glyph glyph-name="uni0426" unicode="&#x426;" horiz-adv-x="1746" 
d="M297 1434v-1330h893v1330h123v-1330h258v-462h-121v358h-1274v1434h121z" />
    <glyph glyph-name="uni0427" unicode="&#x427;" horiz-adv-x="1400" 
d="M297 1434v-498q0 -141 98 -227t271 -86q174 0 298 108t134 277v426h121v-1434h-121v801q-63 -131 -197 -207q-127 -76 -311 -77t-299 110t-115 288v519h121z" />
    <glyph glyph-name="uni0428" unicode="&#x428;" horiz-adv-x="2263" 
d="M1192 1434v-1330h772v1330h123v-1434h-1911v1434h121v-1330h774v1330h121z" />
    <glyph glyph-name="uni0429" unicode="&#x429;" horiz-adv-x="2521" 
d="M176 0v1434h121v-1330h774v1330h121v-1330h772v1330h123v-1330h260v-462h-123v358h-2048z" />
    <glyph glyph-name="uni042A" unicode="&#x42a;" horiz-adv-x="1636" 
d="M688 104h391q141 0 229 92t87 238q0 146 -87 238t-229 92h-391v-660zM176 1329v105h512v-566h404q186 0 306 -120t120 -314t-120 -314t-306 -120h-525v1329h-391z" />
    <glyph glyph-name="uni042B" unicode="&#x42b;" horiz-adv-x="1710" 
d="M1536 0h-123v1434h123v-1434zM297 104h391q139 0 227 92t89 238q0 146 -88 238t-228 92h-391v-660zM176 0v1434h121v-566h403q186 0 306 -120t120 -314t-120 -314t-306 -120h-524z" />
    <glyph glyph-name="uni042C" unicode="&#x42c;" horiz-adv-x="1245" 
d="M297 104h391q139 0 227 92t89 238q0 146 -88 238t-228 92h-391v-660zM176 0v1434h121v-566h403q186 0 306 -120t120 -314t-120 -314t-306 -120h-524z" />
    <glyph glyph-name="uni042D" unicode="&#x42d;" horiz-adv-x="1503" 
d="M648 96q271 0 436 163t173 421h-815v104h813q-23 248 -185 401t-413 152q-287 0 -446 -178l-74 74q203 209 523 209t524 -201q198 -205 198 -525t-198 -523q-204 -201 -524 -201t-523 207l74 75q166 -178 437 -178z" />
    <glyph glyph-name="uni042E" unicode="&#x42e;" horiz-adv-x="2091" 
d="M748 717q0 -273 154 -447t398 -174q246 0 396 174q154 172 154 446t-154 447q-150 174 -396 174t-399 -173t-153 -447zM1301 -8q-294 0 -478 192q-188 190 -196 498h-330v-682h-121v1434h121v-648h332q23 291 205 476q186 180 474 180t478 -201q186 -205 186 -524
t-186 -524q-191 -201 -485 -201z" />
    <glyph glyph-name="uni042F" unicode="&#x42f;" horiz-adv-x="1236" 
d="M940 1329h-387q-127 0 -207 -83t-80 -216t80 -216t207 -83h387v598zM539 627q-174 1 -285 113t-111 290q1 178 109 291t287 113h522v-1434h-121v627h-231l-473 -627h-136l473 627h-34z" />
    <glyph glyph-name="uni0430" unicode="&#x430;" horiz-adv-x="1142" 
d="M236 294q0 -98 74 -152t210 -54t238 117q98 119 98 287q-98 32 -257 32t-261 -66t-102 -164zM856 0v260q-49 -122 -153 -194t-248 -72t-240 79t-96 213t135 226t350 92q143 0 252 -26v71q0 127 -82 207t-211 80q-205 0 -330 -100l-63 61q150 135 385 135q186 0 301 -108
t115 -273v-651h-115z" />
    <glyph glyph-name="uni0431" unicode="&#x431;" horiz-adv-x="1265" 
d="M266 513q0 -187 104 -305t275 -119q169 -1 277 115t108 306t-106 307t-276 117t-275 -119q-107 -115 -107 -302zM1147 512q0 -228 -139 -374q-140 -146 -360 -146t-358 144t-138 376v205q0 190 45 314t111 179q66 54 160 96t183 56q220 35 322 135l67 -67
q-61 -62 -151 -102t-171 -52q-197 -29 -312 -113q-63 -47 -99 -147q-39 -96 -39 -258q51 124 164 198t248 74q203 0 335 -144t132 -374z" />
    <glyph glyph-name="uni0432" unicode="&#x432;" horiz-adv-x="1077" 
d="M291 928v-359h303q90 0 142 49q52 50 52 130t-52 130t-142 50h-303zM291 483v-387h348q90 0 146 54q57 54 57 142q0 87 -58 139t-155 52h-338zM633 1024q123 0 196 -74q74 -70 74 -188q0 -164 -137 -227q92 -29 139 -97q53 -66 53 -176t-79 -184q-78 -78 -209 -78h-494
v1024h457z" />
    <glyph glyph-name="uni0433" unicode="&#x433;" horiz-adv-x="999" 
d="M874 1024v-96h-583v-928h-115v1024h698z" />
    <glyph glyph-name="uni0434" unicode="&#x434;" horiz-adv-x="1464" 
d="M545 928q0 -670 -148 -832h647v832h-499zM125 96h100q205 0 205 928h729v-928h182v-418h-116v322h-985v-322h-115v418z" />
    <glyph glyph-name="uni0435" unicode="&#x435;" horiz-adv-x="1193" 
d="M236 569h727q-5 162 -107 263q-102 102 -254 102t-251 -100t-115 -265zM644 -8q-232 0 -380 143q-145 150 -145 378q0 227 134 373t347 146t346 -143q133 -150 133 -377v-29h-846q6 -175 121 -285q114 -110 302 -110t300 119l66 -68q-146 -147 -378 -147z" />
    <glyph glyph-name="uni0436" unicode="&#x436;" horiz-adv-x="1632" 
d="M874 0h-116v319l-187 205l-370 -524h-127l424 604l-373 420h137l496 -551v551h116v-551l496 551h137l-372 -420l424 -604h-127l-371 524l-187 -205v-319z" />
    <glyph glyph-name="uni0437" unicode="&#x437;" horiz-adv-x="1007" 
d="M471 86q137 0 220 56t83 144t-65 144q-66 53 -177 53h-227v90h193q102 0 164 50q61 53 61 133t-70 129q-68 53 -182 53q-176 0 -287 -111l-57 58q145 147 371 147q154 0 246 -74t94 -190q0 -170 -160 -233q94 -27 153 -97q57 -72 58 -168q0 -127 -111 -200
q-104 -78 -286 -78q-231 0 -377 151l57 60q111 -117 299 -117z" />
    <glyph glyph-name="uni0438" unicode="&#x438;" horiz-adv-x="1249" 
d="M176 0v1024h115v-858l670 858h116v-1024h-116v858l-670 -858h-115z" />
    <glyph glyph-name="uni0439" unicode="&#x439;" horiz-adv-x="1249" 
d="M624 1335q171 0 289 119l62 -61q-141 -147 -348 -147t-348 147l61 61q113 -119 284 -119zM176 0v1024h115v-858l670 858h116v-1024h-116v858l-670 -858h-115z" />
    <glyph glyph-name="uni043A" unicode="&#x43a;" horiz-adv-x="1120" 
d="M291 0h-115v1024h115v-549l536 549h142l-412 -424l467 -600h-133l-408 524l-192 -196v-328z" />
    <glyph glyph-name="uni043B" unicode="&#x43b;" horiz-adv-x="1316" 
d="M432 1024h709v-1024h-115v928h-479q1 -498 -61 -717t-228 -219q-90 0 -174 84l63 65q59 -53 109 -53q94 0 137 211q39 227 39 725z" />
    <glyph glyph-name="uni043C" unicode="&#x43c;" horiz-adv-x="1495" 
d="M176 0v1024h133l439 -856l438 856h133v-1024h-115v840l-418 -840h-77l-418 840v-840h-115z" />
    <glyph glyph-name="uni043D" unicode="&#x43d;" horiz-adv-x="1241" 
d="M950 0v481h-659v-481h-115v1024h115v-446h659v446h117v-1024h-117z" />
    <glyph glyph-name="uni043E" unicode="&#x43e;" horiz-adv-x="1271" 
d="M236 512q0 -188 112 -306t289 -118q178 0 290 118t111 306q0 188 -112 306t-289 118t-289 -118t-112 -306zM119 512q0 227 143 377q150 143 375 143t373 -143q143 -145 143 -377t-143 -377q-146 -143 -372 -143t-376 143q-143 150 -143 377z" />
    <glyph glyph-name="uni043F" unicode="&#x43f;" horiz-adv-x="1230" 
d="M940 0v928h-649v-928h-115v1024h881v-1024h-117z" />
    <glyph glyph-name="uni0440" unicode="&#x440;" horiz-adv-x="1234" 
d="M291 498v-324q121 -84 303 -84t294 118t112 308t-99 302q-98 114 -254 114t-256 -123t-100 -311zM174 -461v1485h117v-299q47 137 155 223q109 82 250 82q186 0 301 -145q117 -141 117 -371t-139 -376q-139 -144 -367 -144q-190 0 -317 86v-541h-117z" />
    <glyph glyph-name="uni0441" unicode="&#x441;" horiz-adv-x="1118" 
d="M119 512q0 232 143 377q146 143 376 143t374 -149l-66 -68q-115 121 -299 121t-299 -117q-112 -119 -112 -307t112 -307q115 -117 300 -117t298 119l66 -66q-142 -149 -372 -149t-378 143q-143 145 -143 377z" />
    <glyph glyph-name="uni0442" unicode="&#x442;" horiz-adv-x="1204" 
d="M125 928v96h954v-96h-420v-928h-114v928h-420z" />
    <glyph glyph-name="uni0443" unicode="&#x443;" horiz-adv-x="1284" 
d="M309 -469q-137 0 -213 80l64 65q48 -49 126 -49t128 54q49 59 92 157l78 166l-471 1020h114l414 -891l416 891h117l-572 -1229q-57 -127 -127 -195t-166 -69z" />
    <glyph glyph-name="uni0444" unicode="&#x444;" horiz-adv-x="1421" 
d="M653 94v836q-182 0 -301 -115q-114 -119 -114 -303t114 -303q119 -115 301 -115zM768 930v-836q186 0 302 116t116 302t-116 302t-302 116zM768 -461h-115v459q-236 0 -387 141q-147 143 -147 373t147 373q152 141 387 141v459h115v-459q236 0 387 -141
q147 -143 147 -373t-147 -373q-152 -141 -387 -141v-459z" />
    <glyph glyph-name="uni0445" unicode="&#x445;" horiz-adv-x="1175" 
d="M225 0h-135l428 524l-405 500h133l342 -422l342 422h135l-408 -500l428 -524h-135l-362 444z" />
    <glyph glyph-name="uni0446" unicode="&#x446;" horiz-adv-x="1394" 
d="M176 0v1024h115v-928h639v928h117v-928h225v-418h-117v322h-979z" />
    <glyph glyph-name="uni0447" unicode="&#x447;" horiz-adv-x="1206" 
d="M287 1024v-293q0 -131 78 -213q79 -80 215 -80t232 106t97 265v215h117v-1024h-117v582q-53 -115 -153 -176q-98 -66 -243 -66t-243 105t-98 274v305h115z" />
    <glyph glyph-name="uni0448" unicode="&#x448;" horiz-adv-x="1751" 
d="M934 1024v-928h526v928h115v-1024h-1399v1024h115v-928h526v928h117z" />
    <glyph glyph-name="uni0449" unicode="&#x449;" horiz-adv-x="1896" 
d="M176 0v1024h115v-928h526v928h117v-928h526v928h115v-928h199v-418h-117v322h-1481z" />
    <glyph glyph-name="uni044A" unicode="&#x44a;" horiz-adv-x="1374" 
d="M592 532v-436h315q102 0 168 60q63 61 64 157q1 95 -63 157t-169 62h-315zM125 928v96h467v-395h340q145 0 234 -88q89 -89 89 -227t-89 -226t-234 -88h-457v928h-350z" />
    <glyph glyph-name="uni044B" unicode="&#x44b;" horiz-adv-x="1497" 
d="M291 532v-436h317q102 0 167 60t65 157q0 98 -66 158q-61 61 -166 61h-317zM291 1024v-395h342q145 0 231 -88q90 -83 90 -225t-88 -229t-233 -87h-457v1024h115zM1321 0h-115v1024h115v-1024z" />
    <glyph glyph-name="uni044C" unicode="&#x44c;" horiz-adv-x="1073" 
d="M291 532v-436h317q102 0 167 60t65 157q0 98 -66 158q-61 61 -166 61h-317zM291 1024v-395h342q145 0 231 -88q90 -83 90 -225t-88 -229t-233 -87h-457v1024h115z" />
    <glyph glyph-name="uni044D" unicode="&#x44d;" horiz-adv-x="1118" 
d="M305 483v90h574q-14 161 -126 261q-111 100 -291 100t-290 -117q-3 6 -20 19q-8 12 -25 24l-21 23q142 149 372 149t378 -143q143 -145 143 -377t-143 -377q-148 -143 -376 -143t-374 147q14 16 66 68q113 -119 295 -119t295 109q109 109 119 286h-576z" />
    <glyph glyph-name="uni044E" unicode="&#x44e;" horiz-adv-x="1619" 
d="M641 512q0 -188 103 -306q104 -118 270 -118t269 118t103 306t-103 306t-269 118t-270 -118t-103 -306zM291 0h-115v1024h115v-446h237q18 205 152 327q129 127 338 127t346 -144t137 -376t-137 -376t-349 -144t-344 134t-143 355h-237v-481z" />
    <glyph glyph-name="uni044F" unicode="&#x44f;" horiz-adv-x="1087" 
d="M797 512v416h-318q-109 0 -168 -60q-65 -53 -65 -146q0 -94 64 -152t169 -58h318zM131 728q0 128 90 212t236 84h454v-1024h-114v422h-258l-310 -422h-125l314 426q-127 8 -209 90q-78 84 -78 212z" />
    <glyph glyph-name="uni0450" unicode="&#x450;" horiz-adv-x="1193" 
d="M408 1462l73 74l299 -301l-51 -51zM236 569h727q-5 162 -107 263q-102 102 -254 102t-251 -100t-115 -265zM644 -8q-232 0 -380 143q-145 150 -145 378q0 227 134 373t347 146t346 -143q133 -150 133 -377v-29h-846q6 -175 121 -285q114 -110 302 -110t300 119l66 -68
q-146 -147 -378 -147z" />
    <glyph glyph-name="uni0451" unicode="&#x451;" horiz-adv-x="1193" 
d="M774 1255v179h117v-179h-117zM301 1255v179h115v-179h-115zM236 569h727q-5 162 -107 263q-102 102 -254 102t-251 -100t-115 -265zM644 -8q-232 0 -380 143q-145 150 -145 378q0 227 134 373t347 146t346 -143q133 -150 133 -377v-29h-846q6 -175 121 -285
q114 -110 302 -110t300 119l66 -68q-146 -147 -378 -147z" />
    <glyph glyph-name="uni0452" unicode="&#x452;" horiz-adv-x="1394" 
d="M1104 0v627q0 137 -84 225q-88 84 -232 84t-248 -124q-103 -124 -106 -308v-504h-115v1219h-188v77h188v189h115v-189h602v-77h-602v-494q51 139 162 225q114 82 266 82t256 -106q102 -109 103 -277v-649q-1 -271 -181 -453l-55 56q119 119 119 397z" />
    <glyph glyph-name="uni0453" unicode="&#x453;" horiz-adv-x="999" 
d="M612 1536l72 -74l-319 -278l-52 51zM874 1024v-96h-583v-928h-115v1024h698z" />
    <glyph glyph-name="uni0454" unicode="&#x454;" horiz-adv-x="1116" 
d="M119 512q0 232 143 377q146 143 376 143t374 -149l-66 -68q-115 121 -293 121t-284 -100q-111 -98 -129 -263h604v-90h-608q10 -176 120 -286q113 -109 295 -109t295 119l66 -66q-142 -149 -372 -149t-378 143q-143 145 -143 377z" />
    <glyph glyph-name="uni0455" unicode="&#x455;" horiz-adv-x="921" 
d="M801 287q0 -127 -101 -213q-104 -82 -249 -82q-207 0 -345 149l66 66q100 -119 279 -119q101 0 167 55t66 128t-56 115t-119 64t-164 60q-216 83 -216 246q0 125 90 198q86 78 227 78q205 0 330 -149l-63 -64q-102 117 -262 117q-91 0 -149 -50t-58 -120q0 -124 196 -188
q72 -25 159 -59t144 -93q58 -55 58 -139z" />
    <glyph glyph-name="uni0456" unicode="&#x456;" 
d="M176 1255v179h115v-179h-115zM291 0h-115v1024h115v-1024z" />
    <glyph glyph-name="uni0457" unicode="&#x457;" 
d="M352 1255v179h117v-179h-117zM-2 1255v179h117v-179h-117zM291 0h-115v1024h115v-1024z" />
    <glyph glyph-name="uni0458" unicode="&#x458;" horiz-adv-x="548" 
d="M258 1255v179h115v-179h-115zM32 -373q102 1 164 65t62 171v1161h115v-1157q0 -147 -90 -244q-92 -92 -239 -92t-239 96l64 66q61 -66 163 -66z" />
    <glyph glyph-name="uni0459" unicode="&#x459;" horiz-adv-x="1945" 
d="M1141 532v-436h317q102 0 168 60q63 61 64 157q0 96 -64 158q-66 61 -168 61h-317zM1141 1024v-395h342q143 0 232 -88q89 -87 89 -225t-88 -230q-92 -86 -233 -86h-457v928h-479q1 -498 -61 -717t-228 -219q-90 0 -174 84l63 65q59 -53 109 -53q94 0 137 211
q39 227 39 725h709z" />
    <glyph glyph-name="uni045A" unicode="&#x45a;" horiz-adv-x="1869" 
d="M1067 532v-436h315q102 0 168 60q63 61 64 157q0 95 -64 157t-168 62h-315zM1067 1024v-395h340q145 0 231 -88q90 -83 90 -225t-88 -229t-233 -87h-457v481h-659v-481h-115v1024h115v-446h659v446h117z" />
    <glyph glyph-name="uni045B" unicode="&#x45b;" horiz-adv-x="1394" 
d="M1104 0v627q0 137 -84 225q-88 84 -232 84t-248 -124q-103 -124 -106 -308v-504h-115v1219h-188v77h188v189h115v-189h602v-77h-602v-494q51 139 162 225q114 82 266 82t256 -106q102 -109 103 -277v-649h-117z" />
    <glyph glyph-name="uni045C" unicode="&#x45c;" horiz-adv-x="1091" 
d="M657 1536l72 -74l-319 -278l-52 51zM291 0h-115v1024h115v-549l536 549h142l-412 -424l467 -600h-133l-408 524l-192 -196v-328z" />
    <glyph glyph-name="uni045D" unicode="&#x45d;" horiz-adv-x="1249" 
d="M436 1462l74 74l299 -301l-51 -51zM176 0v1024h115v-858l670 858h116v-1024h-116v858l-670 -858h-115z" />
    <glyph glyph-name="uni045E" unicode="&#x45e;" horiz-adv-x="1284" 
d="M641 1260q-203 0 -342 147l61 61q113 -118 280 -118t280 118l61 -61q-137 -147 -340 -147zM309 -469q-137 0 -213 80l64 65q48 -49 126 -49t128 54q49 59 92 157l78 166l-471 1020h114l414 -891l416 891h117l-572 -1229q-57 -127 -127 -195t-166 -69z" />
    <glyph glyph-name="uni045F" unicode="&#x45f;" horiz-adv-x="1230" 
d="M559 0h-383v1024h115v-928h649v928h117v-1024h-383v-322h-115v322z" />
    <glyph glyph-name="uni0490" unicode="&#x490;" horiz-adv-x="1204" 
d="M176 0v1434h762v204h121v-309h-762v-1329h-121z" />
    <glyph glyph-name="uni0491" unicode="&#x491;" horiz-adv-x="972" 
d="M174 0v1024h543v256h117v-354h-543v-926h-117z" />
    <glyph glyph-name="uni04D9" unicode="&#x4d9;" horiz-adv-x="1193" 
d="M595 88q151 0 251 100t115 265h-728q6 -160 107 -265q104 -100 255 -100zM117 539h846q-10 179 -130 287t-318 108t-316 -119l-68 68q151 149 395 149t400 -143q152 -147 152 -377t-135 -374q-134 -146 -348 -146t-346 144t-132 374v29z" />
    <glyph glyph-name="figuredash" unicode="&#x2012;" horiz-adv-x="1200" 
d="M1026 688h-850v98h850v-98z" />
    <glyph glyph-name="endash" unicode="&#x2013;" horiz-adv-x="1376" 
d="M1200 545h-1024v98h1024v-98z" />
    <glyph glyph-name="emdash" unicode="&#x2014;" horiz-adv-x="2050" 
d="M1876 545h-1700v98h1700v-98z" />
    <glyph glyph-name="quoteleft" unicode="&#x2018;" horiz-adv-x="534" 
d="M291 969h-115q0 155 51 285t129 210l54 -55q-119 -119 -119 -440z" />
    <glyph glyph-name="quoteright" unicode="&#x2019;" horiz-adv-x="534" 
d="M244 1448h114q0 -158 -51 -285q-47 -131 -129 -213l-53 56q119 119 119 442z" />
    <glyph glyph-name="quotesinglbase" unicode="&#x201a;" 
d="M176 205h115q0 -152 -51 -285t-129 -211l-54 55q119 119 119 441z" />
    <glyph glyph-name="quotereversed" unicode="&#x201b;" horiz-adv-x="534" 
d="M164 1434h115q-1 -293 120 -414l-55 -57q-180 182 -180 471z" />
    <glyph glyph-name="quotedblleft" unicode="&#x201c;" horiz-adv-x="874" 
d="M631 969h-115q0 155 51 285t129 210l56 -55q-121 -121 -121 -440zM291 969h-115q0 155 51 285t129 210l54 -55q-119 -119 -119 -440z" />
    <glyph glyph-name="quotedblright" unicode="&#x201d;" horiz-adv-x="874" 
d="M584 1448h116q0 -154 -50 -285t-130 -213l-55 56q119 119 119 442zM244 1448h114q0 -158 -51 -285q-47 -131 -129 -213l-53 56q119 119 119 442z" />
    <glyph glyph-name="quotedblbase" unicode="&#x201e;" horiz-adv-x="806" 
d="M516 205h115q0 -152 -50 -284t-130 -212l-54 55q119 119 119 441zM176 205h115q0 -152 -51 -285t-129 -211l-54 55q119 119 119 441z" />
    <glyph glyph-name="uni201F" unicode="&#x201f;" horiz-adv-x="874" 
d="M164 1434h115q-1 -293 120 -414l-55 -57q-180 182 -180 471zM504 1434h117q-1 -295 118 -414l-55 -57q-180 182 -180 471z" />
    <glyph glyph-name="dagger" unicode="&#x2020;" horiz-adv-x="950" 
d="M111 963v96h307v426h114v-426h308v-96h-308v-1168h-114v1168h-307z" />
    <glyph glyph-name="daggerdbl" unicode="&#x2021;" horiz-adv-x="950" 
d="M111 221v98h307v644h-307v96h307v426h114v-426h308v-96h-308v-644h308v-98h-308v-426h-114v426h-307z" />
    <glyph glyph-name="bullet" unicode="&#x2022;" horiz-adv-x="632" 
d="M119 661q0 85 57 141t143 56q85 0 137 -55t52 -143t-51 -140q-51 -53 -137 -53t-144 55q-57 55 -57 139z" />
    <glyph glyph-name="ellipsis" unicode="&#x2026;" horiz-adv-x="1271" 
d="M981 0v205h115v-205h-115zM578 0v205h114v-205h-114zM176 0v205h115v-205h-115z" />
    <glyph glyph-name="perthousand" unicode="&#x2030;" horiz-adv-x="2746" 
d="M2056 332q0 -106 64 -176t172 -70q106 0 171 70t64 176q0 106 -64 177q-65 71 -171 71t-171 -71t-65 -177zM1956 333q0 151 92 245q94 94 244 94t242 -94t92 -244t-92 -244q-92 -96 -242 -96t-244 94q-92 94 -92 245zM1210 332q0 -106 64 -176t172 -70q106 0 171 70
t64 176q0 106 -64 177q-65 71 -171 71t-171 -71t-65 -177zM1446 -6q-150 0 -243 94t-93 245t93 245t243 94t242 -94t92 -244t-92 -244q-92 -96 -242 -96zM219 1151q0 -106 68 -176q63 -70 170 -70t171 70t64 176t-64 177t-170 71t-173 -71q-66 -71 -66 -177zM455 1491
q151 0 243 -94t92 -245t-92 -245q-94 -94 -244 -94t-242 94q-93 94 -93 245t93 245t243 94zM586 0h-125l856 1485h125z" />
    <glyph glyph-name="guilsinglleft" unicode="&#x2039;" horiz-adv-x="780" 
d="M543 162l-400 401l400 402l71 -74l-327 -328l327 -327z" />
    <glyph glyph-name="guilsinglright" unicode="&#x203a;" horiz-adv-x="780" 
d="M236 965l399 -402l-399 -401l-72 74l328 327l-328 328z" />
    <glyph glyph-name="fraction" unicode="&#x2044;" horiz-adv-x="1013" 
d="M72 -205h-105l975 1690h105z" />
    <glyph glyph-name="Euro" unicode="&#x20ac;" horiz-adv-x="1679" 
d="M117 508v90h186q-8 68 -8 118t8 118h-186v92h205q57 233 243 377q188 139 451 139q322 0 524 -207q-33 -35 -74 -76q-164 178 -446 178q-213 1 -364 -111t-205 -300h776v-92h-801q-8 -47 -8 -118t8 -118h801v-90h-776q51 -186 204 -303q154 -111 365 -111q287 0 446 178
l74 -73q-201 -207 -526 -207q-260 0 -449 139q-184 139 -243 377h-205z" />
  </font>
</defs>
</svg>
