<?xml version="1.0" encoding="UTF-8" standalone="no"?>
<svg width="164px" height="143px" viewBox="0 0 164 143" version="1.1" xmlns="http://www.w3.org/2000/svg" xmlns:xlink="http://www.w3.org/1999/xlink">
    <!-- Generator: Sketch 39.1 (31720) - http://www.bohemiancoding.com/sketch -->
    <title>Layer_1</title>
    <desc>Created with Sketch.</desc>
    <defs>
        <polygon id="path-1" points="123.064721 0 41.0736316 0 0 71.5 41.0736316 143 123.064721 143 163.98218 71.5"></polygon>
        <mask id="mask-2" maskContentUnits="userSpaceOnUse" maskUnits="objectBoundingBox" x="0" y="0" width="163.98218" height="143" fill="white">
            <use xlink:href="#path-1"></use>
        </mask>
    </defs>
    <g id="Player" stroke="none" stroke-width="1" fill="none" fill-rule="evenodd">
        <g id="gorilla-player---lato-font" transform="translate(-639.000000, -312.000000)">
            <g id="content" transform="translate(-5.000000, 0.000000)">
                <g id="Group">
                    <g id="vg_gorilla_framework" transform="translate(644.002742, 312.000000)">
                        <g id="Layer_1">
                            <use id="XMLID_673_" stroke="#FFFFFF" mask="url(#mask-2)" stroke-width="8" xlink:href="#path-1"></use>
                            <path d="M110.297233,67.3196507 L71.0271343,42.5828585 C69.8663744,41.8919044 68.4240833,42.0072223 67.3357716,42.0072223 C62.9803005,42.0072223 63.0000014,45.3689125 63.0000014,46.2202951 L63.0000014,96.7797099 C63.0000014,97.4992552 62.9812538,100.992783 67.3357716,100.992783 C68.4240833,100.992783 69.8663744,101.108101 71.0271343,100.416829 L110.297233,75.6800365 C113.520543,73.7628375 112.9632,71.4993671 112.9632,71.4993671 C112.9632,71.4993671 113.520543,69.2371675 110.297233,67.3196507 L110.297233,67.3196507 Z" id="Fill-1" fill="#FFFFFF"></path>
                        </g>
                    </g>
                </g>
            </g>
        </g>
    </g>
</svg>