<svg version="1.1" id="live4logo" xmlns:sketch="http://www.bohemiancoding.com/sketch/ns"
                     xmlns="http://www.w3.org/2000/svg" xmlns:xlink="http://www.w3.org/1999/xlink" x="0px" y="0px" viewBox="8.1 266.6 244 206.8" preserveAspectRatio='xMinYMin' xml:space="preserve">
    <g>
        <g>
            <polygon class="logo-color" fill="#000000" points="44,293.5 33,293.5 33,383.7 71.4,383.7 71.4,373.2 44,373.2       "/>
            <rect x="82.9" y="293.4" class="logo-color" fill="#000000" width="11" height="90.3"/>
            <polygon class="logo-color" fill="#000000" points="131.5,373.2 128.9,373.2 117.1,293.4 105.8,293.4 119.3,384.2 140.9,384.2 154.7,293.4 
                143.6,293.4         "/>
            <polygon class="logo-color" fill="#000000" points="165.4,383.7 204.3,383.7 204.3,372.7 176.4,372.7 176.4,344.5 198.4,344.5 198.4,333.6 
                176.4,333.6 176.4,304.5 202.6,304.5 202.6,293.5 165.4,293.5         "/>
        </g>
        <g>
            <g>
                <path class="logo-color" fill="#000000" d="M240.8,303.9v45.9h-17.9v-3.3l16.2-42.6H240.8z M211.8,344.5v16.1h29.1v23h11.3v-90.2h-20.7L211.8,344.5z
                    "/>
                <polygon fill="#EE2737" points="223.1,266.6 8.3,266.6 8.3,410.6 223.1,410.6 223.1,372.7 212.1,372.7 212.1,400.1 19.4,400.1 
                    19.4,277.1 212.1,277.1 212.1,304.6 214.7,304.6 223.1,282.8          "/>
            </g>
        </g>
        <g>
            <path class="logo-color" fill="#000000" d="M16.3,461.9c0,0.9,2.5,3,3.6,3.6c0.1,0,0.1,0.1,0.4,0.1h10.6c0.2,0,0.4-0.1,0.4-0.1
                c1.1-0.6,3.6-2.9,3.6-3.8v-7.5h-10v-7.8H43v15.7c0,0,0.5,5.1,1.5,10.9h-8l-0.4-1.9c-1.1,0.8-3,2.2-4.8,2.2H19.9
                c-1.7,0-3.6-0.6-4.8-1.4c-1.6-0.9-4.7-4.1-5.7-5.4c-0.9-1.4-1.2-3-1.2-4.5v-24.6c0-1.5,0.3-3,1.2-4.4c0.9-1.3,4.1-4.7,5.7-5.6
                c1.2-0.8,3.1-1.3,4.8-1.3h11.4c4.6,0,7.9,3.6,9.9,6.4c0.6,0.9,1.2,1.8,1.6,2.7l-7.8,2.2c0,0-1.7-2.3-3.7-3.6
                c-0.1-0.1-0.3-0.1-0.4-0.1H20.2c-0.2,0-0.4,0.1-0.4,0.1c-0.9,0.5-2.6,1.9-3.5,3.3c-0.1,0.1-0.1,0.3-0.1,0.3V461.9z"/>
            <path class="logo-color" fill="#000000" d="M90.1,466.4c-1,1.3-4.1,4.7-5.7,5.6c-1.2,0.8-3.2,1.4-4.8,1.4H67.7c-1.7,0-3.6-0.6-4.8-1.4
                c-1.6-0.9-4.7-4.3-5.7-5.6c-0.9-1.4-1.2-3-1.2-4.4v-24.3c0-1.5,0.3-3,1.2-4.4c0.9-1.3,4.1-4.7,5.7-5.6c1.2-0.8,3.1-1.4,4.8-1.4
                h11.8c1.6,0,3.6,0.6,4.8,1.4c1.6,0.9,4.7,4.3,5.7,5.6c0.9,1.4,1.2,3,1.2,4.4v24.3C91.3,463.4,91,464.9,90.1,466.4z M64.2,461.8
                c0,0,0,0.2,0.1,0.3c0.9,1.4,2.6,2.9,3.4,3.3c0.1,0.1,0.3,0.1,0.4,0.1h11.2c0,0,0.2,0,0.4-0.1c0.9-0.5,2.5-2,3.4-3.3
                c0.1-0.1,0.1-0.3,0.1-0.3v-24c0,0,0-0.3-0.1-0.4c-0.9-1.4-2.6-3-3.4-3.4c-0.1-0.1-0.3-0.1-0.4-0.1H68.1c0,0-0.3,0-0.4,0.1
                c-0.9,0.5-2.5,2-3.4,3.4c-0.1,0.1-0.1,0.4-0.1,0.4V461.8L64.2,461.8z"/>
            <path class="logo-color" fill="#000000" d="M133.8,448.8c-0.7,1-3.1,3.3-4.2,4.1c-1.6,1.2-3.7,1.7-5.5,1.7h-13.7V473h-8.2v-46.5h21.9
                c1.9,0,4,0.6,5.5,1.7c1.1,0.8,3.5,3.3,4.2,4.3c0.9,1.4,1.4,3.1,1.4,4.7v6.8C135.2,445.8,134.8,447.4,133.8,448.8z M127.1,437.3
                c0,0,0-0.4-0.1-0.5c-0.5-0.9-1.7-2.4-2.5-2.5c-0.1,0-0.2,0-0.4,0h-13.7v12.6h13.7c0.7,0,2.2-1.5,2.9-2.6c0,0,0.1-0.1,0.1-0.3
                L127.1,437.3L127.1,437.3z"/>
            <path class="logo-color" fill="#000000" d="M176.7,448.8c-0.7,1-3.1,3.3-4.2,4.1c-0.6,0.5-1.3,0.9-2,1.1l9.3,19h-8.9l-8.6-18.3h-8.9V473h-8.2v-46.5
                H167c1.9,0,4,0.6,5.5,1.7c1.1,0.8,3.5,3.3,4.2,4.3c0.9,1.4,1.4,3.1,1.4,4.7v6.8C178.1,445.8,177.7,447.4,176.7,448.8z M170,437.3
                c0,0,0-0.4-0.1-0.5c-0.5-0.9-1.7-2.4-2.5-2.5h-14.1v12.6H167c0.7,0,2.2-1.5,2.9-2.6c0,0,0.1-0.1,0.1-0.3V437.3z"/>
            <path class="logo-color" fill="#000000" d="M222.1,466.4c-1,1.3-4.1,4.7-5.7,5.6c-1.2,0.8-3.2,1.4-4.8,1.4h-11.8c-1.7,0-3.6-0.6-4.8-1.4
                c-1.6-0.9-4.7-4.3-5.7-5.6c-0.9-1.4-1.2-3-1.2-4.4v-24.3c0-1.5,0.3-3,1.2-4.4c0.9-1.3,4.1-4.7,5.7-5.6c1.2-0.8,3.1-1.4,4.8-1.4
                h11.8c1.6,0,3.6,0.6,4.8,1.4c1.6,0.9,4.7,4.3,5.7,5.6c0.9,1.4,1.2,3,1.2,4.4v24.3C223.4,463.4,223.1,464.9,222.1,466.4z
                 M196.3,461.8c0,0,0,0.2,0.1,0.3c0.9,1.4,2.6,2.9,3.4,3.3c0.1,0.1,0.3,0.1,0.4,0.1h11.2c0,0,0.2,0,0.4-0.1c0.9-0.5,2.5-2,3.4-3.3
                c0.1-0.1,0.1-0.3,0.1-0.3v-24c0,0,0-0.3-0.1-0.4c-0.9-1.4-2.6-3-3.4-3.4c-0.1-0.1-0.3-0.1-0.4-0.1h-11.2c0,0-0.3,0-0.4,0.1
                c-0.9,0.5-2.5,2-3.4,3.4c-0.1,0.1-0.1,0.4-0.1,0.4V461.8z"/>
        </g>
    </g>
</svg>