<?xml version="1.0" encoding="utf-8"?>
<!-- Generator: Adobe Illustrator 16.0.0, SVG Export Plug-In . SVG Version: 6.00 Build 0)  -->
<!DOCTYPE svg PUBLIC "-//W3C//DTD SVG 1.1//EN" "http://www.w3.org/Graphics/SVG/1.1/DTD/svg11.dtd">
<svg version="1.1" id="Layer_1" xmlns="http://www.w3.org/2000/svg" xmlns:xlink="http://www.w3.org/1999/xlink" x="0px" y="0px"
	 width="731.985px" height="384.978px" viewBox="0 0 731.985 384.978" enable-background="new 0 0 731.985 384.978"
	 xml:space="preserve">
<g>
	<polygon points="120.373,5.089 242.748,218.869 365.125,5.089 	"/>
	<path d="M462.73,114.089h113.732c0,63-51.35,114.995-114.693,114.995c-63.345,0-114.213-51.199-114.213-114.542
		C347.557,51.199,398.73,0,462.73,0V114.089z"/>
	<g>
		<path d="M64.515,315.638h6.304l-32.503,68.946h-6.009L0,315.638h6.206l29.154,62.643L64.515,315.638z"/>
		<path d="M77.972,384.584v-53.089h5.712v53.089H77.972z"/>
		<path d="M99.917,331.496h20.29c16.055,0,27.185,10.834,27.185,26.594c0,15.66-11.13,26.495-27.185,26.495h-20.29V331.496z
			 M120.207,336.027h-14.578v44.027h14.578c12.607,0,21.57-9.062,21.57-21.965C141.777,345.087,132.814,336.027,120.207,336.027z"/>
		<path d="M160.877,331.496h37.23v4.531H166.59v19.206h29.352v4.53H166.59v20.291h32.011v4.53h-37.724V331.496z"/>
		<path d="M236.207,331.298c16.449,0,27.775,10.934,27.775,26.889c0,15.858-11.326,26.791-27.775,26.791
			c-16.252,0-27.579-10.933-27.579-26.791C208.628,342.232,219.955,331.298,236.207,331.298z M236.207,380.448
			c13.1,0,21.965-9.16,21.965-22.261c0-13.197-8.865-22.357-21.965-22.357c-12.805,0-21.866,9.16-21.866,22.357
			C214.341,371.288,223.402,380.448,236.207,380.448z"/>
		<path d="M348.979,348.437h26.003v26.495c-6.205,6.401-14.971,10.046-25.313,10.046c-20.585,0-34.67-14.184-34.67-34.867
			c0-20.586,14.184-34.867,34.67-34.867c10.343,0,19.108,3.645,25.313,9.948l-3.546,3.644c-5.023-5.416-12.706-8.568-21.57-8.568
			c-17.138,0-28.958,12.312-28.958,29.844c0,17.729,11.82,29.844,28.958,29.844c7.683,0,14.381-2.265,19.207-6.599V353.46h-20.094
			V348.437z"/>
		<path d="M415.762,331.298c16.449,0,27.775,10.934,27.775,26.889c0,15.858-11.326,26.791-27.775,26.791
			c-16.252,0-27.579-10.933-27.579-26.791C388.183,342.232,399.51,331.298,415.762,331.298z M415.762,380.448
			c13.1,0,21.965-9.16,21.965-22.261c0-13.197-8.865-22.357-21.965-22.357c-12.805,0-21.866,9.16-21.866,22.357
			C393.896,371.288,402.957,380.448,415.762,380.448z"/>
		<path d="M477.165,361.734c6.008,7.584,11.918,15.168,18.123,22.851h-6.501c-6.008-7.683-11.918-15.267-18.024-22.851h-8.077
			v22.851h-5.712v-53.089h20.782c9.062,0,15.464,6.205,15.464,15.168c0,8.865-6.402,15.07-15.464,15.07H477.165z M462.686,336.125
			v20.979h14.381c6.106,0,10.44-4.333,10.44-10.44c0-6.205-4.334-10.539-10.44-10.539H462.686z"/>
		<path d="M507.178,384.584v-53.089h5.713v53.089H507.178z"/>
		<path d="M529.123,331.496h5.713v48.559h33.39v4.53h-39.103V331.496z"/>
		<path d="M580.42,331.496h5.713v48.559h33.39v4.53H580.42V331.496z"/>
		<path d="M661.658,331.496l25.707,53.089h-5.713l-7.288-15.069h-31.321l-7.388,15.069h-5.713l25.806-53.089H661.658z
			 M645.111,364.984h27.086l-13.593-27.678L645.111,364.984z"/>
		<path d="M713.566,384.978c-7.388,0-13.198-2.758-17.729-7.682l2.955-2.857c3.546,3.743,8.372,6.009,14.577,6.009
			c7.584,0,12.903-4.235,12.903-10.44c0-11.82-29.45-7.88-29.45-24.525c0-8.569,7.189-14.184,16.843-14.184
			c7.584,0,13.001,2.856,17.434,7.683l-2.955,2.955c-3.546-3.94-7.88-6.106-13.986-6.106c-7.19,0-11.622,3.939-11.622,9.455
			c0,12.805,29.45,8.963,29.45,24.427C731.985,378.97,723.908,384.978,713.566,384.978z"/>
	</g>
</g>
</svg>
